<svg xmlns="http://www.w3.org/2000/svg" width="100%" height="128.031" viewBox="0 0 570 128.031" preserveAspectRatio="none" >
  <g id="Brushe" transform="translate(-50.931 -44.059)">
    <path id="Path_248" data-name="Path 248" d="M227.8,50.465a5.411,5.411,0,0,0,1.837.107,22.106,22.106,0,0,1,4.942.029,1.955,1.955,0,0,0,1-.126,11.056,11.056,0,0,1,3.394-.988,2.836,2.836,0,0,1,1.3.094,3.568,3.568,0,0,0,3.208-.116,3.925,3.925,0,0,1,3.629-.136,7.85,7.85,0,0,0,4.47.419c.492-.079,1.15-.021,1.21-.461.375-.06.387-.533,1.031-.288.11.455,1.215.13,1.38.561a.384.384,0,0,0,.481.115c.255-.11.143-.309-.047-.356-.617-.156-.785-.524-1.237-.752-.16-.08-.309-.228-.166-.3a1.926,1.926,0,0,1,.684-.1c.289-.009.371.166.56.249a.7.7,0,0,0,.657.044.246.246,0,0,0,.1-.392c-.189-.3-.651-.306-1.121-.332a16.032,16.032,0,0,0-2.322.441c-1.513.053-2.969-.428-4.505-.152a17.516,17.516,0,0,0-3.223.142c-1.565.253-3.329,0-4.763.591a.462.462,0,0,1-.122-.006,27.091,27.091,0,0,0-5.249.183c-.694.117-1.21.525-2.056.387a1.509,1.509,0,0,0-1.409.355c-.435.392-.846.328-1.114-.119-.09-.15-.281-.155-.48-.152-.623.01-1.254,0-1.864.06-.311.029-.862-.016-.835.3C227.2,50.032,227.182,50.33,227.8,50.465Z" transform="translate(76.077 1.584)" fill="rgba(233,120,74,0.15)"/>
    <path id="Path_249" data-name="Path 249" d="M213.421,50.73c2.122.014,4.222.448,6.369.08,1.3-.223,2.78.127,3.778-.352.656.023,1.1.1,1.377-.142.12-.107-.006-.2-.193-.288a4.363,4.363,0,0,0-3.728-.462,2.832,2.832,0,0,1-.849.02c-2.269-.054-4.477.331-6.749.286-.4-.007-1.071.007-1.057.348C212.382,50.521,213.011,50.727,213.421,50.73Z" transform="translate(69.688 2.271)" fill="rgba(233,120,74,0.15)"/>
    <path id="Path_250" data-name="Path 250" d="M620.3,110.338c-.866-.163-1.805-.617-2.815-.142-.021.023-.044.046-.069.067h0a.276.276,0,0,0,.073-.067,7.078,7.078,0,0,0-2.189-.471c-.8-.132-1.485-.631-2.361-.024-.077-.616-.094-.646-.825-.517-.656.115-1.1.163-.965-.358.043-.16-.195-.232-.367-.336a4.566,4.566,0,0,0-2.405-.494l-.246.016c-.6.007-.736-.362-1.2-.465l-2.037-.833h0c-.563-.19-.365-.293.083-.462.544-.206,1.343.034,1.908-.425-1.39-.133-2.689-.381-3.878-.411-2.357-.06-4.752-.093-7.125.063-.653.043-1.323.011-1.984,0-.415-.009-.535-.11-.188-.292a2.846,2.846,0,0,1,1.135-.076c.492.08.616-.112.5-.358.4-.636-2.03-.3-1.178-1.1a3.014,3.014,0,0,0-.358-.044,7.91,7.91,0,0,0-1.069.107,4.231,4.231,0,0,1-2.384-.249c.073-.01.147-.017.223-.02a1.483,1.483,0,0,0,1.251-.358c-.734-.044-1.25-.409-1.987-.2l-2,0-.5-.137c-.291-.261-1.074-.06-1.256-.422-.262.06-.56.2-.8.1a4.9,4.9,0,0,0-2.991-.092h0c-2.56-.029-5.088-.285-7.661-.295a42.873,42.873,0,0,1-4.8-.251,87.04,87.04,0,0,0-10.11-.566l-2.743-.07a1.5,1.5,0,0,1-.7-.082,7.752,7.752,0,0,0-3.89-.5,17.028,17.028,0,0,1-2.451.054c-2.53-.311-5.118-.195-7.658-.4a18.47,18.47,0,0,0-2.354-.064,30.318,30.318,0,0,1-4.531-.218,1.858,1.858,0,0,0-.384-.15c-.75-.132-1.678-.072-1.745-.766-.03-.3-.513-.56-1.137-.219a2.782,2.782,0,0,1-1.479.266l-.034-.263a3.618,3.618,0,0,1,3.512-.543,3.589,3.589,0,0,0,1.429.271c-.322.1-.351.352-.764.345-.167,0-.435-.139-.447.064,0,.082.252.245.369.241.921-.044,1.994.064,2.573-.464a.918.918,0,0,1,1.025-.269,1.141,1.141,0,0,0,.853-.219,3.54,3.54,0,0,1,1.758.188,2.111,2.111,0,0,0,1.669-.392c.494-.279-.563-.319-.773-.61,1.223-.026,2.226.364,3.349.412h0a8.371,8.371,0,0,0,.984.515c.431.165.995.545,1.363.372.865-.407,1.654-.046,2.461-.079l.452-.021h0c.949.442,2.022-.248,3.041.1.215.073.314-.3.129-.44a1.7,1.7,0,0,0-1.13-.481l-.009-.288a2.54,2.54,0,0,1,2.07-.125,4.028,4.028,0,0,0,1.433.54l1.213.249c-.245.367-1,.285-1.306.586a1.474,1.474,0,0,0,1.655-.106c.326-.195.507-.511,1.158-.422,0,.352-.344.8.578.933.975.137,2.012.229,2.278-.623.312.246.475.571.958.238s.808-.365,1.133.07c.073.1.515.066.478-.033-.245-.639.7-.146.919-.324l.739.044c.122.4.687.255,1.092.271.893.032,1.794.014,2.684.062.753.04,1.442-.036,1.429-.507s-.714-.538-1.435-.451l-.25.021c-.113-.464-1.15-.281-1.384-.6-.513-.69-1.134-.369-1.654-.062a1.969,1.969,0,0,1-1.45.185c-.505-.087-1.094-.062-1.545-.147-1.237-.235-2.7-.049-3.744-.629l.8-.142h0l9.466-.17c1.682.113,3.331-.139,5.005-.139.206.007.418,0,.621.023,2.3.226,4.444-.484,6.732-.354.242.014.694-.2.468-.306-.921-.452-.374-.763.133-1.152.252-.195.19-.5-.06-.74-.5-.471-1.36-.2-2.042-.3a.31.31,0,0,1-.086-.112c.557-.487-.774-.374-.707-.706a2.34,2.34,0,0,0,.946-.18.852.852,0,0,0,.389-.186c.686-.308,1.426-.594,1.419-1.193a33.49,33.49,0,0,0,4.556-1.4,3.514,3.514,0,0,1,1.419-.193,6.534,6.534,0,0,0,3.805-.736c.3-.125.657-.2.974-.314a43.288,43.288,0,0,0,5.563-2.073,6.255,6.255,0,0,1,1.311-.636c.759-.206,1.024-.381.474-.825-.507-.411-.4-.74.674-.783.43-.017.921-.016.852-.432-.135-.812-.281-.869-1.525-.434-.036-.517.706-.929.618-1.427-.2-1.158,1.3-2.052,1.483-3.165.074-.465.044-.694-.764-.65-.54.03-.671-.133-.822-.312-.195-.23.233-.291.45-.339,1.044-.236,1.429-.518.646-1.128a.649.649,0,0,1,.042-.9c.365-.389.079-.461-.467-.49a12.4,12.4,0,0,0-1.495-.009,14.53,14.53,0,0,1-3.088-.186,21.951,21.951,0,0,0-3.309-.256,25.962,25.962,0,0,1-5.167.014c.177-.142-1.021-.1-.14-.325a2.142,2.142,0,0,0,.71-.356,4.212,4.212,0,0,1,2.7-.608c1.906.12,3.843.107,5.765.115,1.117,0,2.7-1.054,2.132-1.467-.666-.482-.225-.723.135-1.058.375-.146.847-.3.806-.574-.12-.8.839-.9,1.86-.989.547-.046.976-.14.85-.527.3-.77-.251-1.276-1.738-1.545,2.272-.309,2.55-1.223,2.545-2.219,0-.407.132-.879-1.1-.8-.48.033-.783-.291-.742-.478.064-.3.534-.156.9-.116.48.053,1.1.235,1.085-.332-.006-.248.54-.342.931-.411.511-.089,1.008-.175.888-.548-.137-.421-.733-.372-1.284-.339a4.167,4.167,0,0,0-1.162-.176c.01-.225-.405-.291-.537-.442-.518-.6-1.5-1.068-1.519-1.8l-.006,0q.114-.009.228-.013c1.191-.009,2.278.517,3.487.272,1-.2,2.188.01,3.057-.468.213-.116.435.01.657.082.458.149,1.084.405.76-.253-.033-.066.283-.242.49-.279.614-.113,1.164.252,1.888.063.312-.08-.009.434.55.561.514-.58,1.475-.271,2.271-.368a2.191,2.191,0,0,1,1.883.392c1.068.218,1.714-.314,2.563-.478.4-.077.248-.369.192-.57-.06-.216-.4-.186-.683-.213-.507-.049-.916.168-1.656.2a3.58,3.58,0,0,1,2.6-.372c.314.066.693.056.753-.21s-.218-.335-.608-.312c-.282.017-.591.1-.633-.163h0a.511.511,0,0,1,.049-.122c.372-.053.962.126,1.079-.159.1-.249-.415-.346-.81-.437a2.714,2.714,0,0,1-.567-.256h0c-.733.292-1.558-.1-2.275.08-1.3.326-2.447-.163-3.652-.241-.657-.042-1.791.209-2.249-.4a1.044,1.044,0,0,0-.45.049c-.505.5-1.738.292-2.271.769-.146.132-.6.229-.591-.057.026-.59-.7-.419-1.268-.5s-1.712.266-1.429-.548c.042-.119-.212-.083-.372-.067-.541.054-.716-.246-1.028-.338-.488-.142-.5-1.121-1.619-.382a.629.629,0,0,1-.571-.013,6.815,6.815,0,0,0-2.073-.487,26.942,26.942,0,0,0-6.507-.4,12.352,12.352,0,0,0-2.918-.314l-.318-.12a20.359,20.359,0,0,0-5.764-.311c.551-.172,1.3-.172,1.286-.656l-.082-.04h0l.08.042c.782-.129,1.7.47,2.427-.185.226-.2.2.356.656.213.321-.918.321-.909-1.432-.916a9.367,9.367,0,0,0-1.7.165c-1.273-.319-2.745-.033-4.007-.412a1.114,1.114,0,0,0-.517.145,3.123,3.123,0,0,1-1.244.265c-1.913.107-3.88-.169-5.748.253-.057-.03-.125-.092-.172-.087-3.12.291-6.274.2-9.412.269q-4.669.1-9.316.338a4.548,4.548,0,0,1-1.827-.116,7,7,0,0,0-3.1-.178,31.984,31.984,0,0,1-4.989.245c-1.457-.226-2.919.126-4.381-.011-.292-.029-.428.1-.451.262l-1.709.026c-3.957.1-7.919.146-11.851.371-.206-.445,1.648-.381.633-.992a1.006,1.006,0,0,0-1.127-.109h0c-.524-.092-.039-.51-.6-.587a1.888,1.888,0,0,1,1.057-.09,13.139,13.139,0,0,0,3.027-.129c.451-.079,1.486-.178,1.518.1.063.555.567.275.86.228a27.816,27.816,0,0,1,5.178-.48h0c.464.142,1.057.162,1.407.534-.21-.608.089-.779,1.074-.65,1.2.156,2.306-.478,3.556-.19h0a1.8,1.8,0,0,0,1.25-.062c1.462-.566,3.327.09,4.83-.454a.736.736,0,0,1,.183.086c.243.127.51.2.687-.019.13-.165.013-.306-.276-.415a2.033,2.033,0,0,0-1.948.282c-.335-.288-.742-.531.235-.606a1.141,1.141,0,0,0,.376-.176h0a2.255,2.255,0,0,1,1.887-.1,4.679,4.679,0,0,0,1.329.042h0l.975.017c.183.228.972.026.915.362-.054.314-.71.153-1.021.3-.21.1-.6-.017-.749.179,1.608.4,1.672.422,2.514-.382.444-.424.683-.311.806.029.252.691,1.167.591,1.924.507,1.088-.125,1.811-.85,3.14-.643.02,0,.066-.027.089-.047a2.509,2.509,0,0,1,1.443-.324h-.006a15.121,15.121,0,0,0,5.15-.193c.722-.09.723-.474.041-.729a5.533,5.533,0,0,0-1.171-.21c-.633-.083-1.46-.021-1.847-.339-.789-.647-1.205-.315-1.688.119-.22.2-.348.507-.976.341a5.748,5.748,0,0,0-2.543.043,14.253,14.253,0,0,1-2.992-.157c-.4-.809-1.227-.094-1.833-.135-.365-.024-.584.434-.9.5-.892.173-.033-.4-.62-.537a8.717,8.717,0,0,0-4.145.351h0a.284.284,0,0,0-.056.115l-.428.179a1.61,1.61,0,0,1-.288-.21c-.129-.159.437-.368-.043-.485a1.127,1.127,0,0,0-.923.273c-.3.183-.47.457-1.055.387-.2-.165-.288-.484-.747-.381-1.244.281-2.921-.07-3.757.8-.064-.136.06-.314-.266-.394-.567.079-1.455-.329-1.625.361-.044.178-.336.052-.485.011-.293-.08-.564-.186-.845-.279h0c-1.354-.169-2.849.007-4.053-.525h0c-.434.062-1.143-.235-1.214.3-.095.7-.769.883-1.8.485a1.8,1.8,0,0,0-1.247-.12h0c-.842-.165-1.729-.893-2.484.063a.2.2,0,0,1-.115.023,26.191,26.191,0,0,1-3.307-.281c-.285-.056-.358-.434-.846-.195-.415.2.13.374.117.621a3.469,3.469,0,0,1-.933-.13c-.511-.292-.584-.325-.7.033-.155.467-.724.677-1.251.938-.454-.212.089-.437-.152-.621-.213-.163.04-.47-.462-.527-.411-.047-.525.152-.7.321-.331.319-.66.228-1.059-.01a1.706,1.706,0,0,0-2.44.168.136.136,0,0,0,.043.06l-.03,0-.013-.063c-.666.112-1.052.46-.447.644,1.211.371.288.465-.117.659h0c-.626-.186-1.026-.4-.736-.868.219-.348.039-.686-.541-.929-.4-.169-.9-.119-.828.1.165.481-.608.377-.87.571h0a31.89,31.89,0,0,1-3.951-.417.886.886,0,0,0-.767-.273c-.424.046-1.24-.165-1.168.222.143.782-.719.261-1.1.338a2.29,2.29,0,0,1-1.088-.255,3.133,3.133,0,0,0-2.415-.163,5.918,5.918,0,0,1-3.522.547c-.352.212-.409.5.117.544,1.546.143,1.057.785,1.125,1.3-.617.062-1.735.117-1.741-.053-.024-.68-1.549-.775-1.519-1.476.019-.444-.57-.786-1.561-.428a4.832,4.832,0,0,1-2.072.1c-1.442-.153-2.9.044-4.327-.13l-.352-.236-1.183.133,0,0c-.694.263-1.646-.129-2.282.283-.272.319-.637.238-1.13.145-.755-.143-1.614-.716-2.319.023-.282.052-.564.1-.845.142-1.473.107-1.628.223-.892.866-.04.132-.21.209-.432.263-.086.009-.172.014-.258.02-.179-.139-.153-.392-.4-.492a2.166,2.166,0,0,0-1.483-.421c-.995,0-1.99,0-2.985,0-.109-.013-.22-.021-.341-.026-.348-.01-.7-.013-1.045-.013a3.833,3.833,0,0,0-1.174.01l-.508.009c-.912-.039-1.792-.206-2.727-.175-3.161.106-6.324-.3-9.491.01a2.542,2.542,0,0,1-1.964-.458c-.039-.04-.076-.082-.115-.122.132-.093.079-.209-.1-.283-.955-.4-.14-.411.316-.51h0l.334,0c.331.011.664.014.994.036.44.029.895.021,1.349.017.07,0,.139,0,.206.009.543.053,1.087.08,1.646.083a3.166,3.166,0,0,1,1.453.591,1.039,1.039,0,0,0,.72.129c.08.01.159.017.238.023.165.013-.037-.017.125,0a8.17,8.17,0,0,0,1.944.139,48.588,48.588,0,0,1,5.393-.281l.072-.017c.389.245.8-.033,1.205-.123.255-.04.507-.084.759-.132a4.635,4.635,0,0,0,1.563-.2,9.085,9.085,0,0,1,2.816-.387,3.378,3.378,0,0,1,.586.149c.272.372.8.44,1.435.382a2.806,2.806,0,0,1,1.1-.009,1.97,1.97,0,0,0,2.275-.354l.034.01a2.387,2.387,0,0,0,.342.1,8.32,8.32,0,0,0,4.425.033.512.512,0,0,1,.243-.009,15.3,15.3,0,0,0,5.373-.169,8.775,8.775,0,0,1,.976-.093,6.209,6.209,0,0,0,.863,0,4.9,4.9,0,0,1,2.219.089c.368-.009.832.037.951-.22.142-.3-.477-.169-.661-.295-.258-.176-.583-.348-.271-.606l2.706-.076.8.361c-.132.7.909.5,1.462.531,1.42.082,2.859-.139,4.288.023.245.013.624.036.631-.106.016-.309-.438-.464-.888-.591h0c-.116-.072-.387.034-.435-.117a1.5,1.5,0,0,0,.362-.042c.342-.149.953-.185.975-.462.017-.216-.471-.259-.79-.219-1.356.168-2.74.033-4.1.142h0c-.308-.047-.747.016-.746-.286a1.191,1.191,0,0,1,1.078.083.843.843,0,0,0,.769-.1c.135-.076.371-.147.215-.283a.976.976,0,0,0-.706-.245c-2.219.047-4.45-.09-6.657.129a5.058,5.058,0,0,0-1.492-.009c-.329-.009-.667-.047-.988-.023-1.25.1-2.554-.193-3.764.169h-.007a12.953,12.953,0,0,0-1.821-.076A11.007,11.007,0,0,1,484.653,46a6.051,6.051,0,0,0-1.908,0c-.243,0-.49.007-.736.027a3.162,3.162,0,0,1-.574-.07.571.571,0,0,0-.511.262h0l-.5.135c-.616.092-1.668-.374-1.724.429-.1.329.573.255.74.444l-.285.129a2.494,2.494,0,0,1-.961-.14h0c-.2-.394-.212-.941-1.16-.953-1.4-.02-2.78-.122-4.172-.168a2.081,2.081,0,0,0-1.277.176.517.517,0,0,1-.54.006,1.736,1.736,0,0,0-1.767-.2c-1.679.558-3.523.293-5.286.427-.53.04-.795-.407-1.475-.162-.759.273-.816-.042-.651-.372.087-.173.368-.345-.036-.5a1,1,0,0,0-.321,0c-.019.208-.616.293-.382.54.17.18.233.334-.23.338a29.234,29.234,0,0,1-4.593.087c-.6-.087-1.2-.079-1.105-.583.053-.272-.362-.182-.631-.182-.477.023-1.105-.123-1.356.185-.167.2.407.242.639.361.036.192.859.1.494.437-.636.216-1.38-.092-2.013.133l-3.712.165c-1.576-.243-1.85-.481-1.457-1.309.1-.2-.1-.255-.368-.252-.365,0-.73.036-1.094.054l-1.843-.042h0c-.617.222-.627.424.043.616.548.157,1.152.251,1.94.417-.992.275-1.88-.057-2.58.253h0c-1.022-.251-1.486.312-2.221.484a.742.742,0,0,1-.538-.087c-.492-.375.052-.875-.471-1.247-.4-.133-.394-.637-.978-.505-.663.15-.149.527-.13.8a4.32,4.32,0,0,0,.082.481c-.024.51-.6.647-1.377.659-1,.014-2,.011-3,.057a21.636,21.636,0,0,1-4.116-.451c1.094-.126,1.35-.265,1.044-.461a1.921,1.921,0,0,0-1.4-.067c-.555.107-.491.331-.2.558a25.254,25.254,0,0,1-3.97-.414,11.847,11.847,0,0,1-2.71-.03c-.779-.169-1.13-.3-.069-.649a2.123,2.123,0,0,0-.979-.017,11.713,11.713,0,0,1-2.616-.079c-.606.017-1.016.8-1.815.149a1.7,1.7,0,0,0-.275.133c-.5.387-.779.312-.88-.13-.036-.153-.17-.192-.421-.152a8.369,8.369,0,0,1-3.049-.16c-.377-.077-.941-.016-.52.268.57.385.528.943,1.279,1.248.017.044.069.123.047.129a4.98,4.98,0,0,1-3.407-.268,3.5,3.5,0,0,0-2.613-.553,1.9,1.9,0,0,1-.949-.066c-.915-.677-1.95-.377-3.018-.193-.462.079-1.052.351-1.37-.183-.163-.278-.683-.218-1.047-.064a9.843,9.843,0,0,1-4.4.455,1.091,1.091,0,0,0-1.16-.017c-.382.229-.117.51.116.754h0c-.047.329.366.311.747.309a4.477,4.477,0,0,1,1.777.3c-.833.109-1.7.126-1.069.765.219.222-.178.422-.709.425-.5,0-1,.031-1.495.047a9.658,9.658,0,0,1-2.226-.142h0c.362-.146.846-.246.384-.588-.606-.445.01-.418.544-.405.243.127.5.246.724.385.156.1.212.288.537.216.306-.067.116-.243.176-.361.359-.689-.331-1.221-.792-1.784a.975.975,0,0,0-1.135-.166,6.125,6.125,0,0,1-1.89.172c-.982.023-1.855-.414-2.84-.155a6.077,6.077,0,0,1-1.4.229c-.916.072-1.835-.149-2.677-.029a45.373,45.373,0,0,1-5.678.5c-1.565-.083-3.133-.016-4.71-.122a22.4,22.4,0,0,0-5.369.243c-1.356.057-2.729.219-4.062.145a3.591,3.591,0,0,0-2.633.765c-.786.886-1.084.249-1.585-.016-.354-.188-.614-.684-.985-.551a9.591,9.591,0,0,1-3.034.106c-1.077.047-2.336.334-3.271-.082-.919-.409-1.055.043-1.423.258-.583.338-.156.53.372.7.183.06.544.042.44.278-.265.042-.547.073-.809.133-.2.044-.356.133-.255.275a.507.507,0,0,0,.507.13c.975-.451,1.788.049,2.67.12.644-.13,1.319-.007,1.994-.1s.465.163.195.346h0c-1.27.15-1.27.15-.4.763-.019.034-.039.069-.059.1h-.109l-.107,0c-.289-.11-.528.059-.8.043a4.946,4.946,0,0,0-1.432-.009c-.7-.006-1.406,0-2.106-.024-.387-.013-.965.09-1.092-.185-.183-.4-.673-.338-1.148-.365-.457-.027-.912-.062-1.456-.1.422-.322,1.7-.518.5-.832-.63-.165-1.326-.332-2-.48-1.157.049-2.285-.388-3.4-.169a15.673,15.673,0,0,1-3.456,0c-.2,0-.411.02-.617.031-1.227.044-2.415.48-3.705,0a2.092,2.092,0,0,0-1.592.2c-.5.329.123.513.362.71.425.352-.434.245-.418.429h0c-1.194.082-.583.782-1.161,1.074l-.076.245h0a8.3,8.3,0,0,1-1.749.567,33.936,33.936,0,0,0-5.7.213c-3.708.44-7.492.314-11.19.713-1.907.206-3.874.233-5.79.452a10.235,10.235,0,0,1-1.608.076c-1.571-.06-3.16.321-4.726-.054a.275.275,0,0,0-.119.017c-1.976.616-4.159.371-6.254.457-1.679.069-3.42-.258-5.005.331a2.548,2.548,0,0,1-1.336-.009,20.635,20.635,0,0,0-5.828.07c-1.436.117-2.886.183-4.315.334a1.231,1.231,0,0,1-.956-.269c-.349-.318-.667-.225-1.1-.029a5.016,5.016,0,0,1-3.946.432,3.069,3.069,0,0,0-1.45.01,5.5,5.5,0,0,1-2.289.185,20.523,20.523,0,0,0-6.7-.185c-2.08.153-2.358.023-2.226-1.173.02-.173.195-.388-.306-.454a1.342,1.342,0,0,0-1.1.176.613.613,0,0,0-.023,1.059c.474.407.189.53-.484.6a37.247,37.247,0,0,1-5.568-.053c-.757-.029-.23-.248.014-.4.646-.4.5-.683-.407-.86a4.373,4.373,0,0,1-1.241-.252c-1.19-.591-1.241.3-1.772.518-.606.252-.282.535.253.729.8.288.925.736.129.862a35.156,35.156,0,0,1-4.477.73c-1.41.049-2.835-.361-4.248.074a2,2,0,0,1-1.419-.056,5.946,5.946,0,0,0-3.174-.859,16.485,16.485,0,0,1-5.236-.743c-.289-.11-1.091-.336-1.042.279.019.233-.6.309-1.021.153-1.221-.457-1.254-.452-1.759.286-.125.183-.033.48-.573.458-.452-.017-.494-.259-.6-.471-.2-.4-.324-1.081-1.228-.2a.56.56,0,0,1-.544.077,6.652,6.652,0,0,0-3.236.011c-1.446.229-2.881.421-4.4.517-1.979-.027-3.956-.053-5.933-.033-6.072.064-12.153-.09-18.209.4-2.541.2-5.117.23-7.644.49-3.741.384-7.45.9-11.176,1.36a3.91,3.91,0,0,1-1.187.059,10.838,10.838,0,0,0-3.274.113c-1.394-.155-2.732.346-4.117.183a3.956,3.956,0,0,0-1.712.137,4.466,4.466,0,0,1-1.621.2c-2.135-.094-4.252.113-6.369.215-1.047.05-2.087-.086-3.132.064a27.4,27.4,0,0,1-4.727.515,17.745,17.745,0,0,0-2.783.352,18.757,18.757,0,0,0-3.324.455c-.51.073-1.078-.112-1.515.145a8.372,8.372,0,0,1-3.075.962c-2.09.314-4.1.732-6.2.067a1.166,1.166,0,0,0-1.327.342c-.292.475-.817.523-1.407.555a25.385,25.385,0,0,0-3.264.372l-4.577.275a17.967,17.967,0,0,0-2.639.238c-.189.009-.312.08-.223.262.206.419-.251.584-.681.746l-1.535.077.013.159,1.525.056c.492.228.518.248.364.339a3.2,3.2,0,0,1-1.518.691,2.7,2.7,0,0,0-1.439.344,6.021,6.021,0,0,0-1.853.261,13.348,13.348,0,0,1-1.456-.076,23.209,23.209,0,0,0-5.048.325l-.084-.006-.079.021c-1.6-.044-3.2-.179-4.79-.276-2.215-.136-4.428.092-6.64-.15a28.961,28.961,0,0,0-4.985-.053,16.21,16.21,0,0,1-1.927.14c-3.193-.165-6.385-.434-9.579-.451a59.218,59.218,0,0,0-11.4,1.045,9.744,9.744,0,0,1-2.073-.44,2.609,2.609,0,0,0-1.462-.2c-.421.042-.749.176-.273.492.2.133.472.341.316.484-.548.5.062.6.494.779-.431.233-1.006.1-1.462.269-.533-.013-.733.352-.408.425.775.173,1.069.795,1.907.842a8.378,8.378,0,0,1,2.85.391c.233.062.427.126.513.322.4.915.66,1.025,1.989,1.115,1.062.073,2.07-.245,3.124-.146a2.492,2.492,0,0,0,1.078.1,20.486,20.486,0,0,1,3.3.193c-1.021.225-1.841.71-2.548.412a2.651,2.651,0,0,0-1.565-.093c-1.183.135-2.368.251-3.552.374-.242-.262-.455-.378-.817-.046a2.456,2.456,0,0,1-1.339.444c-.462.063-1.307-.2-1.379.462l-.208-.106c.056-.188.119-.379-.315-.377.243-.265.422-.472-.322-.385-.561.067-1.257.19-1.253-.557-.326.365-.2.733-.428,1.021-.02.021-.04.042-.06.066a.163.163,0,0,0-.042.117c-.2.474-.719.547-1.435.388.389-.05.862-.042.8-.428-.063-.371-.558-.238-.868-.318a.882.882,0,0,0-.671.116,3.28,3.28,0,0,0-2.192.246c-.341.208-.85-.1-1.193.155a21.548,21.548,0,0,1-2.319-.175c-.029.137-.066.324-.1.508a.217.217,0,0,0-.122.275,1.771,1.771,0,0,1-.434.093c-.375-.013-.767.069-.75.312.01.176.346.355.753.361.659.01,1.323,0,1.981.037a2.318,2.318,0,0,1,.766.258c.47-.478.713.024.981.137.379-.271,0-.477.019-.7a4.267,4.267,0,0,0,.974.093,11.511,11.511,0,0,1,3.865.279c.3.157-.248.5.319.624.491.109.044-.374.51-.262.042.321.346.545.825.663-.122.1-.464.084-.387.278.059.146.3.113.472.1.535-.039,1.071-.087,1.606-.133.942.011,1.884.02,2.828.033a5.7,5.7,0,0,0,2.022-.122h0l.315-.011a2,2,0,0,0,2.359.412,1.675,1.675,0,0,1,.44-.044l0,0c.291.326.63.116.931.023.222-.069.491-.235.667-.146.729.367,1.413.013,2.115-.007a1.033,1.033,0,0,0,.949-.043c.5-.405.829-.3,1.339.013a1.6,1.6,0,0,0,1.512.06c.45-.246-.273-.324-.271-.527a14.064,14.064,0,0,1,2.7-.06c.462.021.931-.036,1.4-.057a1.984,1.984,0,0,1,1.088.288,5.962,5.962,0,0,0,4.158-.258.688.688,0,0,1,.809-.06,1.852,1.852,0,0,0,1.274.265,4.418,4.418,0,0,1,2.365.736c-.179.179-.319.043-.46.056-3.138.265-6.309.13-9.458.359-1.976.145-3.986.062-5.977.126-1.747.056-3.49.258-5.234.245a36.2,36.2,0,0,0-4.554.335,5,5,0,0,0,.576.086c2.262.032,4.515.122,6.788-.006,2.372-.133,4.766-.112,7.15-.115a15.355,15.355,0,0,1,4.185.053,3.248,3.248,0,0,0,1.021.049c2.568-.316,5.184-.182,7.764-.384,1.173-.093,2.331.123,3.5.109.162.094.435-.037.561.132-.052.074-.1.15-.152.225,0,.361-.518.45-.767.679a23.432,23.432,0,0,1-3.342.119l-1.465.011h0c-.487.069-.79.222-.6.606-1,.1-1.8-.561-2.878-.438.155.335.621.271.77.468l-.853.246-.192-.117a.445.445,0,0,0-.206-.524c-.251-.155-.74-.2-.661.066.132.44-.377.4-.606.561-.185.087-.369.173-.555.259a5.514,5.514,0,0,0-2.017-.286.262.262,0,0,0-.036.064h-.023l.059-.063c-.434-.515.67-.2.6-.548-.617-.12-1.122-.083-1.309.444-.892-.637-.915-.64-1.731-.127a.3.3,0,0,1-.258.043c-.511-.069-1.079-.157-1.44.242a3.42,3.42,0,0,0-1.676.087c-.259-.133-.523.019-.787,0-.223-.016-.54-.054-.561.183-.017.215.266.265.514.269a5.174,5.174,0,0,0,2.364-.169,1.533,1.533,0,0,0,1.3.113h.006a3.584,3.584,0,0,0,1.479.12.587.587,0,0,0,.16.026c.346.249.654.07.955-.05.225-.089.392-.269.712-.179.072.179-.21.349-.04.533l.994-.063a.516.516,0,0,1,.17.02c.674.256.985-.094,1.337-.377h0c.185.235.334.553.772.139a.415.415,0,0,1,.465-.089,2.372,2.372,0,0,0,1.523-.08,7.094,7.094,0,0,1,1.012.007c.157,0,.9.285.5-.285-.084-.119.212-.029.311-.076a2.663,2.663,0,0,0,1.7.361c.607.563.925.567,1.518,0a.552.552,0,0,1,.477-.117c.6.053.9.3.893.932a1,1,0,0,1,1-.451c.524.039.477-.226.385-.47.765-.147,1.565.318,2.359-.09.136-.07.629-.013.684-.226s-.339-.249-.567-.338c-.107-.042-.22-.079-.175-.2.972-.338,1.92.044,2.881.069.14.175.744.361-.019.515-.175.036-.278.067-.17.2a.405.405,0,0,0,.344.179,2.043,2.043,0,0,0,1.027-.358c.366-.225-.119-.268-.268-.389-.192-.156.186-.17.193-.286l.351-.1c0,.239.488.352.361.616-.11.223-.289.457.13.6.521.175.5-.279.813-.361h0a13.813,13.813,0,0,1,2.046.272c.61.422.69-.067.943-.258l.388-.007a2.02,2.02,0,0,1,.412.13,1.981,1.981,0,0,0,2.127,0,1.07,1.07,0,0,1,1.054-.137.257.257,0,0,0,.3-.077c.08-.13-.04-.192-.2-.226s-.345-.062-.517-.093c-.208-.75-.208-.75.891-.742.059.236-.125.6.558.508a8.635,8.635,0,0,0,1.843.7c.153.01.306.031.46.037a11.514,11.514,0,0,0,2.425.1c1.436-.345,2.916-.014,4.3-.352.182-.567.578-.686,1.946-.587-1-.042-1-.042-1.339.233a24.242,24.242,0,0,0,4.176.785,14.008,14.008,0,0,0-2.556.543c-.568.262-1.2.011-1.768.17-.1-.269-.3-.435-.755-.336a2.761,2.761,0,0,0-1.9.133c-1.077-.465-2.239.054-3.367-.142-.817-.143-1.678.189-2.541.119a18.3,18.3,0,0,0-1.841,0l.979.465a8,8,0,0,1-2.232.116c-.5-.017.023-.117-.011-.178.116-.009.331-.016.273-.094a.739.739,0,0,0-.636-.3,20.253,20.253,0,0,1-2.4-.01c-.146-.013-.339-.036-.355.106-.013.11.129.18.288.215h0c.049.135.365.02.391.2-.089.026-.17.047-.251.072-.2.06-.6-.016-.54.223s.405.1.627.1c.974,0,1.948,0,2.922,0-.2.1-.431.086-.57.223-.255.042-.344.132-.05.2a4.486,4.486,0,0,0,1.359.053,12.854,12.854,0,0,0,2.583-.113,4.716,4.716,0,0,0,2.05-.021l.372.011a18.927,18.927,0,0,0,4.972-.2c-.233-.3-.671-.112-.989-.195-.355-.092-.726.1-1.281-.07a32.256,32.256,0,0,1,9.532-.132c-2.282.354-4.471.044-6.587.385a14.49,14.49,0,0,0,2.461.2,23.02,23.02,0,0,1,2.639-.112c2.023-.01,4.056.069,6.072.044a47.252,47.252,0,0,1,6.319.011c.448.054.815-.384,1.35-.2.285.573-.618.261-.787.5a6,6,0,0,1-1.708.1c-.166-.043-.45-.311-.533.013-.04.156-.08.467.487.424a3.4,3.4,0,0,1,1.267.23,6.394,6.394,0,0,0,2.195.275.645.645,0,0,0,.2.049,6.177,6.177,0,0,0,1.613.2c.282-.007.754,0,.4-.368-.385-.276-.348-.455.258-.422,1.566.084,3.144.132,4.689.312a21.737,21.737,0,0,1,2.952.349c-2.52.63-5.111.309-7.7.266.147.269.47.308.762.346,1.181.152,2.362.3,3.549.43a9.992,9.992,0,0,1,4.235.949c.089.056.377.026.183.188-.059.05-.223.042-.341.059-.232-.21-.4-.013-.586.046a44.748,44.748,0,0,0-5.029.5c-1.321.149-2.666.238-3.957.468a11.8,11.8,0,0,0-2.146.291,12.8,12.8,0,0,0-4.284.754,12.434,12.434,0,0,0-5.94,1.281c-1.639-.054-3.17.555-4.832.379-.069-.007-.218.044-.218.067.017.58-.616.324-.974.326a5.6,5.6,0,0,0-1.283.072,19.37,19.37,0,0,1-4.387.2c-2.431.031-4.852-.271-7.291-.186a19.128,19.128,0,0,1-2.024-.059,14.7,14.7,0,0,0-3.121-.026,14.055,14.055,0,0,1-2.331.213c-2.487-.046-4.951-.4-7.456-.2a4.3,4.3,0,0,1-1.986-.188,3.553,3.553,0,0,0-1.967-.165,7.737,7.737,0,0,1-1.93.059,53.3,53.3,0,0,0-7.591-.239,14.658,14.658,0,0,0-2.485.166,5.861,5.861,0,0,0,.72.2c1.324.157,2.657.282,3.974.464,1.008.137,1.984.411,3,.505,2.5.232,5.012.4,7.521.588.223.193.862.137.795.437-.073.331-.618.125-.936.2-.163.04-.318.1-.518.162.3.167.54.326.815.452.182.083.411.133.349.316s-.308.195-.514.2a14.67,14.67,0,0,0-2.414.505,9.309,9.309,0,0,1-1.659.013c-.262-.4-.793-.3-1.21-.251a24.737,24.737,0,0,1-4.231.1,9.61,9.61,0,0,0-3.7.643,2.427,2.427,0,0,0,1.868.873c1.446,0,2.873.147,4.315.163a5.647,5.647,0,0,1,2.029,0,2.145,2.145,0,0,0,1.14.1.232.232,0,0,1,.159.017c.182.906.744,1.569,2.228,1.649.547.13,1.024.468,1.682.265a1.173,1.173,0,0,1,1.049.422,4.09,4.09,0,0,0,2.952.981,40.457,40.457,0,0,1,4.1.418c1.542.192,3.1.432,4.64.468,2.86.067,5.559.795,8.414.823a11.928,11.928,0,0,1,1.611.222,52.564,52.564,0,0,1-8.311-.272c-2.762-.172-5.516-.411-8.282-.534s-5.433-.7-8.3-.752a5.93,5.93,0,0,0,3.153.8c2.309.252,4.664.3,6.936.719a1.122,1.122,0,0,0,.112.036c.7.2,1.609-.073,2.315.421a12.026,12.026,0,0,1-1.877.066l0-.013a3.085,3.085,0,0,0-2.009-.064,2.781,2.781,0,0,0,1.26.322c.5.057.693.62,1.273.432a4.543,4.543,0,0,1,1.687-.074c.487.082.913.425,1.479.159l.009,0c-.073.238.712.454.117.656-.291.1-.511.482-1.012.246-.119-.054-.326-.016-.352.116a.325.325,0,0,0,.077.291.307.307,0,0,0,.392-.021c.316-.292.65-.067.878.027a2.258,2.258,0,0,0,1.386.152c-.083.388-.6.468-.961.792h.989l.146.223c.083.129-.319.345.12.4.309.034.358-.1.358-.311s.212-.143.324-.01a.388.388,0,0,0,.515.1c.367.087.732.175,1.1.261a.3.3,0,0,1-.011.1.811.811,0,0,0-.156.013c-.629-.006-.984.415-1.622.477-.276.026-.094.375.349.4a.651.651,0,0,1,.1.084c.01.013,0,.046-.021.057-.54.341-1.215-.157-1.765.133-.258-.165-.192-.551-.747-.511.1-.676.1-.676-1-.634-.027,0-.06-.054-.086-.08.05-.225.584-.056.557-.334a6.487,6.487,0,0,0-1.933-.706c-.208.308-.637.126-1.021.279.8-.074.212.608.865.6.007.342.382.419.76.494.3.092-.062.166-.014.252-.335-.074-.832-.08-.975-.238a1.249,1.249,0,0,0-1.231-.273,10.7,10.7,0,0,1-1.542-.45,10.006,10.006,0,0,0-3.767-.344c-.331.06-.789.11-.968-.283-.074-.165-.428-.243-.719-.112a.914.914,0,0,1-.577.1,8.031,8.031,0,0,0-3.526.087c-.2.063-.429.079-.441.268s.195.235.421.265.475.08.712.122c.282.05.381.166.368.372-.023.362-.716.326-.777.651a4.02,4.02,0,0,1-.361-.306,1.137,1.137,0,0,0-1.287-.369,2.758,2.758,0,0,1-1.151.077c-.472-.024-1.025-.152-1.281.332-.076.143-.3.042-.348-.115.007-.143.016-.288.023-.431a11.713,11.713,0,0,0,3.277-.862c-.6-.331-1.1.016-1.485-.062-.886-.178-1.722-.538-2.444.182a.339.339,0,0,1-.176.019,6.738,6.738,0,0,1-2.7-.4L87.9,102.1h0a1.133,1.133,0,0,0-1.294-.223c-.3.109-.853-.034-.929.352l-.531.007a3.534,3.534,0,0,1-1.164-.086,1.173,1.173,0,0,0-1.091-.011c-.346.142-.591.339-.816-.069-.06-.109-.271-.115-.411-.08-.265.066.017.169-.01.245-.106.3.165.69-.557.843l.77.251-.659.076c.087.173.515.029.464.23-.042.163-.475.321-.517.283-.286-.251-.921.289-.953-.157s-.43-.44-.826-.517a20.155,20.155,0,0,0-7.452.014,5.208,5.208,0,0,1-2.839-.027.563.563,0,0,0-.6.1l1.6.3c.326.062.578.083.477.441-.119.421.123.733.953.644.391-.042,1.22-.186.8.505-.073.12.057.3.093.448-1.064.09-2.044-.2-3.1-.1.568.11,1.278.908,1.1,1.333-.278.679.318,1.24.4,1.828.136,1.015,1.31.492,1.838.823a.711.711,0,0,1,.062.049,3.024,3.024,0,0,0-2.024.74.142.142,0,0,0-.059.079l-.021-.007.08-.072c-.2-.192-.666.047-.812-.233.011-.326-.3-.411-.691-.422-.142-.006-.329-.006-.375.129-.073.216.306.168.387.3-.12.192-.513.032-.63.228l-.306.011c-.1-.125-.15-.311-.3-.362-.578-.2-.388-.4-.072-.63.166-.069.482-.054.438-.242-.023-.1-.263-.186-.457-.145-.7.15-1.463.011-2.15.209-.232.067-.621-.006-.64.262-.02.289.494.082.61.268-.162.056-.328.1-.482.167-.136.056-.407.063-.3.235a.393.393,0,0,0,.435.17c.361-.1.911-.1.69-.548.407.176,1.545-.252,1.1.627l-.531.023c-.744-.1-1.005.494-1.6.6h0c-.089,0-.178.006-.266.014l-.83-.175c.667-.341.667-.341-.066-.6-.082-.268-.261-.66-.627-.57-.548.137-1.3-.019-1.655.451a5.879,5.879,0,0,1-1.874-.077c-1.21-.571-1.908-.637-2.859,0,.375.228,1.015-.208,1.164.073.375.706,1.307.364,1.87.6a2.348,2.348,0,0,0-1.026.14,5.411,5.411,0,0,1-2.626.385c-.4-.017-.943.162-.889-.4.014-.145-.365-.189-.626-.107-.873.278-1.867.268-2.737.528-.351.1-1.028-.1-1.006.223.026.367.742.216,1.141.318a2.106,2.106,0,0,0,.367,0q1.473.064,2.945.135l.023.168c-1.029.185-2.06.368-3.088.558-.2.039-.558-.123-.6.145-.033.238.325.208.538.261a2.507,2.507,0,0,0,.535.09,20.677,20.677,0,0,1,5.861.534.944.944,0,0,0,.518-.021c.226-.492.607-.146.7-.016.2.265.545.215.82.315.915.332,2.09.05,2.893.6.17.08.438-.006.563.155.345.451.926.384,1.5.322l.535.042c1.077.2,2.189.266,3.268.491a2.077,2.077,0,0,0,1.844-.263.407.407,0,0,1,.4-.089c.9.235,1.887.067,2.8.253.016.127-.292.256.145.375a1.751,1.751,0,0,0,1.749-.143,17.95,17.95,0,0,1,3.472.5c.68.17,1.266.637,2.12.422.043-.011.146.052.192.1.336.319.891.145,1.319.268.159.046.474,0,.428-.216-.033-.162-.3-.193-.438-.133-.594.258-1.021-.127-1.533-.156-.4-.023-.314-.241-.263-.372.08-.218.295-.243.543-.074.349.239.965.163,1.048.009.389-.73.981-.3,1.515-.182a5.325,5.325,0,0,0,1.732.231,18.779,18.779,0,0,1,3.034-.129l.169.243c-.339.166-.168.295.1.344s.641-.014.671-.2c.039-.249-.349-.106-.543-.153.03-.387.5-.172.747-.255,1.215.153,2.444.229,3.677.276.348.362.3.543-.427.515a7.48,7.48,0,0,0-2.175-.017c-.162.126-.587.156-.391.412.13.17.372.08.566.019.253-.082.472.037.709.053a11.038,11.038,0,0,0,3.15.219c.468-.094.6-.179.235-.437.08-.165.558-.166.447-.352-.379-.629.417-.3.669-.412a2.057,2.057,0,0,0,.6.117c2.428-.173,4.856.016,7.3,0a4.5,4.5,0,0,0-1.725.514,1.68,1.68,0,0,1-.9.235c-1.53.047-1.529.057-1.731,1.105a.354.354,0,0,1-.024.06c-.424.258-.78.614-1.489.322a.568.568,0,0,0-.614.2c-.2.557-.85.557-1.47.65-.326.05-.879-.089-.865.364l-.222.22c-1.3.334-2.677.478-3.97.855a13.937,13.937,0,0,0-2.484.717,3.967,3.967,0,0,0-2.106,1.054,13.381,13.381,0,0,0,2.651-.514.958.958,0,0,0,.18-.049h0c.591.052.964-.314,1.5-.368h0a1.128,1.128,0,0,0,.674-.142,7.774,7.774,0,0,1,3.011-.5h0a3.113,3.113,0,0,0,2.218.272.541.541,0,0,1,.57.083c.166.209-.125.3-.311.387-.424.2-.956.289-1.221.628a2.981,2.981,0,0,1-.81-.074c-.611-.169-2.845.225-2.992.62-.329.878-1.27.8-2.212.87-.557.037-1.263-.073-1.629.292a6.023,6.023,0,0,1-3.277,1.223,1.926,1.926,0,0,0-1.893.913,1.719,1.719,0,0,1-1.6.888c-.306.017-.584.034-.54.3.059.361-.269.637-.4.956-1.167.4-1.835,1.225-2.978,1.651-.223.083-.229.295-.359.424-.507.505-.732,1.228-1.718,1.4-1.994.344-3.137,1.486-4.677,2.251a8.022,8.022,0,0,1-1.631.793c-.69.182-1.1.59-.919,1.045.308.8-.162,1.316-.913,1.844-.3.208-.566.482-.835.7-.484.4-.826.968-1.711,1.091-.574-.077-.75.346-1.236.457a10.662,10.662,0,0,0-2.839,1.221c-.3.165.027.933-.941.475-.017-.007-.119.1-.2.117-1.168.251-1.213,1.078-1.8,1.628-.434.405-.084.515.432.545a4.86,4.86,0,0,0,.636-.059c1.022-.08,1.668.167,1.979.746a.309.309,0,0,0,.2.11c.543-.146.769.11,1.178.281a1.79,1.79,0,0,1,1.015,1.012,3.306,3.306,0,0,0,1.938,1.595h0c.072.268.132.308.713.377.269.032.69,0,.663.229-.054.468.381.963,0,1.386-.7.776.371,1.11.845,1.49.414.332.45-.292.763-.391a.85.85,0,0,1,.272-.027,9.653,9.653,0,0,0,2.339-.435,9.9,9.9,0,0,1,2.49-.195,4.66,4.66,0,0,0,2.209-.069c.222-.09.5-.12.6.11a3.387,3.387,0,0,1,.382,1.094c.024.541.336.789,1.117.763.378.2,1.044.129,1.158.588.036.145.2.135.331.039a1.923,1.923,0,0,1,2.418.135h0a2.521,2.521,0,0,1,.235,1.11c.039.679.932,1.029,2.212.709-.836-.006-.976-.412-1.41-.525.3-.487.766-.261,1.2-.17.314-.023.657.809.956-.017.04-.11.261-.064.407-.06.245.009.145.12.162.218.153.9.484,1.1,1.821,1.135a3.466,3.466,0,0,1,1.518.3c.419.258,1.293.16,1.452-.132.271-.5.765-.47,1.286-.535.084.2.545.243.474.507-.166.613.482.444.923.442.156,0,.381-.218.465-.1.448.629.992.1,1.383.014.344-.072.853-.157,1.029-.471.052-.089-.083-.147-.195-.186a2.3,2.3,0,0,0-1.329.084c-.1.023-.152.13-.248.175a.5.5,0,0,1-.574-.009c-.329-.325-.992-.421-1.194-.828-.054-.123-.163-.262.173-.265.429.278,1.049.039,1.508.266.553.275,1.263.05,1.845.249.056.084.243.145.268.1.2-.414.634-.3,1.049-.241.411.077.838.13,1.23.239.461.129.4.4.029.49-.623.155-.981.4-1.051.846-.02.13-.4.052-.278.226a.476.476,0,0,0,.491.1,10.986,10.986,0,0,1,2.528-.119h0c.362.212.624.043.955-.189-.351.545-.19.736.567.554a.5.5,0,0,1,.361.281c.112.127.225.253.338.379a.348.348,0,0,0,.494.136c.659-.487,1.386-.173,2.092-.125.2.593.389.661.976.352-.067-.316.179-.4.58-.372a2.477,2.477,0,0,0,1.435-.251c.324-.122.173-.322.178-.5l.007-.262c.455-.109.228-.435.425-.626a2.232,2.232,0,0,1,1.475.225.256.256,0,0,1,.125.024c.017.12.062.236-.087.346-.666.487-.657.48.314.7a2.812,2.812,0,0,0,.681.125c-.155.093-.308.188-.465.279-.319.183-.155.4-.082.6.663-.286.767.419,1.31.346.378-.1.62-.478,1.15-.259.195.07.377.378.561-.036a8.252,8.252,0,0,1,.694-1.081.457.457,0,0,1,.387-.263c.752-.027,1.561-.521,2.228.129-.916.515.16.624.394.9-.216.143-.76.079-.6.467.064.162.052.352.345.391s.679-.087.7-.2c.077-.345.654-.445.7-.776.162-.072.309-.259.508-.029.321.338.744.1,1.127.093-.137-.365.666-.448.515-.812-.011-.029-.094-.043-.145-.064-.467-.2-1.347.044-1.406-.6a.681.681,0,0,1,.434.024c1.784.409,2.009.667,1.576,1.811-.054.142-.109.316.137.389.215.063.518.127.649-.077.354-.563.671-.2,1.005,0,.049.683.667.295,1.091.273a1.151,1.151,0,0,0,.753.22c.113.334.392.341.716.15a1.205,1.205,0,0,1,.593-.262,12.019,12.019,0,0,1,2.417.757l-.391.268-.348-.156c-.331-.381-.649-.464-.941.02l0,.261c-.023.159-.145.355.137.442a1.538,1.538,0,0,0,1.724-.709c.584-.169-.2-.421.079-.639.533.176,1.025.216,1.367-.255-.05.132-.241.218-.126.318.5.444,1.081.094,1.608.043.608-.062.21-.271.064-.431-.1-.115-.033-.22.12-.259.722-.183.321-.276-.052-.387-.3-.09-.387-.223-.186-.435.074-.079-.126-.335.123-.283a4.82,4.82,0,0,0,1.847-.235.545.545,0,0,1,.57.255c.1.145-.019.3-.19.391-.631.346-.639.381-.039.787.427.225-.235.23-.165.384-.4.419-.67.822.331,1.031.461.22.81.282.757-.246-.021-.218-.069-.475.4-.173.442.348.827.384,1.115-.1.289-.037.511-.223.883,0a1.675,1.675,0,0,0,1.341.006,2.113,2.113,0,0,1,2.256-.295c.155.054.445.126.51.08.752-.525,1.3-.073,1.918.146a1.518,1.518,0,0,0,.807.03,5.458,5.458,0,0,1,1.539-.112c-.086.4-.513.371-.948.387-.637.023-.882.357-.472.677.557.438,1.044,1.032,2.152.727.238.263.631.233.989.225.753-.019,1.479-.03,1.824.57.079.136.384.172.441.074a1.186,1.186,0,0,0,.213-.752c-.026-.153-.338-.252-.676-.206-.253.034-.554-.084-.8-.047-.666.1-.916-.135-1.035-.52l-.014-.245.518-.2c-.113-.137-.358-.135-.5-.206-.312-.156-.785.107-.989-.21.541-.2,1.2-.052,1.729-.293a7.053,7.053,0,0,0,2.2.276c.56.295.119.673.178,1.009.007.042,0,.116.021.117a14.856,14.856,0,0,0,2.863.352c.408-.024.583,0,.78.266a11.006,11.006,0,0,0-1.314-.092c-.249.011-.623-.125-.753.089s.295.281.422.44c0,.122,0,.243-.009.365-.006.172-.239.387.119.491.414.122.482-.135.623-.309.034-.043.159-.052.243-.076.491.063.945.073,1.079-.364.574.282,1.227-.044,1.864.14a5.894,5.894,0,0,0,2.341.338,2.148,2.148,0,0,1,1.572.266v.158c-.113.1-.253.2.036.275a3.613,3.613,0,0,0,1.064.092,4.158,4.158,0,0,1,2.027.135l.01,0a1.944,1.944,0,0,0,1.672-.019c.273.027.019-.538.545-.228.12.269.349.573.7.2.374-.4.84-.331,1.347-.345.309-.009.657.1.915-.069-.014-.3-.573-.176-.6-.467a1.865,1.865,0,0,1,1.382-.258,3.561,3.561,0,0,0,1.091.067c.444-.02.193.629.84.374.371-.147.115-.46.334-.6a1.476,1.476,0,0,0,.5.344c1.918.819,3.742,1.692,5.788,2.435a30.993,30.993,0,0,0,10.145,1.873c2.341.053,4.7.062,7.042.186,1.5.082,3.035.01,4.511.06,2.312.079,4.606.358,6.949.241a1.757,1.757,0,0,1,.365.036,25.553,25.553,0,0,0,6.719.076c.418-.039.782-.429,1.067-.246a5.751,5.751,0,0,0,3.947.524c.288-.033.643.143,1.068-.083.62-.331,1.333-.895,2.17-.069a1.785,1.785,0,0,0,1.031.356,47.809,47.809,0,0,1,5.213.583c.309.03.63.115.69-.113.14-.524.74-.275,1.12-.2a11.051,11.051,0,0,1,1.364.441c.316-.86.415-.872,1.546-.354.178.082.548.673.926.03.06-.1.083.037.116.064a4.75,4.75,0,0,0,2.4.737,4.271,4.271,0,0,0,2.871-.375,1.8,1.8,0,0,1,2.229-.193.577.577,0,0,0,.551.06c.676-.338.812-.024.952.248.192.374.524.636,1.3.583,1.626-.113,3.276-.093,4.892-.276.706-.08,1.767.262,1.782-.541,0-.03.309-.046.452-.09a8.862,8.862,0,0,1,2.677-.1c-.3.3-.752.623.318.736-.253.243-.359.566.094.679.661.166.467-.235.608-.415.18-.228.492-.073.756-.06a7.467,7.467,0,0,0,2.786-.057,2.725,2.725,0,0,1,1.221.289c1.167.346,2.183.07,2.153-.561,1,.093,1.854.656,2.871.47a14.748,14.748,0,0,1,4.126-.127,3,3,0,0,0,2.372-.5,6.1,6.1,0,0,1,2.093.192c.026.017.05.036.076.056-.209.208-.809.167-.651.457a.556.556,0,0,0,.369.135c1.11-.2,2.457.168,3.39-.445.381.586,1.158.578,2.063.475.226-.026.591.222.764.179.442-.109,1.183.215,1.337-.235.176-.511.188-.544,1.062-.279a1.861,1.861,0,0,0,1.755-.047c.594-.389,1.041-.334,1.286.213.18.4.974.634,1.518.608.722-.034,1.774.2,2.173-.422a.65.65,0,0,1,1-.046,2.033,2.033,0,0,0,1.844.219,3.691,3.691,0,0,1,1.573-.007c2.273.375,4.534.925,6.922.228a1.129,1.129,0,0,1,.371-.023c1.457.117,2.865.591,4.4.193a1.4,1.4,0,0,1,.475.069,26.8,26.8,0,0,0,4.485.442c2.568.077,5.131-.212,7.705-.076.4.02.6-.043.67-.292.1-.365.471-.441.923-.149a2.392,2.392,0,0,0,1.967.266,6.481,6.481,0,0,1,1.738-.044c3.7.266,7.417.344,11.136.455.975.03,1.568-.238,1.689-.565.113-.3,1.154-.809-.259-1.115-.538-.117-1.048-.571-.986-.913.054-.312.875-.063,1.321-.19.238-.069.6.007.856-.05.482-.106,1.309-.238,1.387-.067.4.853,1.707.8,2.752,1.022.034.007.023.083.049.195-1-.135-1.712.359-2.729.316-.462-.019-1.132.213-1.124.563.009.377.714.408,1.205.464a6.349,6.349,0,0,1,1.937.462,2.427,2.427,0,0,0,1.439.1,25.793,25.793,0,0,1,3.014-.326c1.522.037,3.057-.06,4.594.06.563.043,1.205-.261,1.724.079a3.533,3.533,0,0,0,1.954.364c1.621-.037,3.247-.136,4.845-.292,1.506-.147,3.376.429,4.447-.661a1.032,1.032,0,0,1,.361-.021c.291,0,.67.033.7-.183.029-.242-.405-.228-.7-.3-.9-.233-1.878.077-2.76-.132.336-.521,1.486-.481,1.873-.952.087-.106.374-.059.544.033,1.5.806,3.233.614,4.991.394a1.844,1.844,0,0,1,1.43.256,1.434,1.434,0,0,0,1.833-.039,4.691,4.691,0,0,1,.78-.437c.576-.263.776-.49-.047-.732-.45-.132-1.006-.394-.644-.651.985-.7.007-.938-.742-1.257a2.261,2.261,0,0,1,1.868-.02.786.786,0,0,0,.452,0,2.3,2.3,0,0,1,1.719,0c.359.087.73.175,1-.056a.5.5,0,0,1,.606-.04c.551.554,1.178.455,1.917.136a1.4,1.4,0,0,1,.842.009,6.382,6.382,0,0,0,1.85.11c.8-.04,1.592-.107.9.578-.142.139.072.206.23.276a3.931,3.931,0,0,0,1.851.467c.033.126.251.311-.1.354a11.324,11.324,0,0,1-2.936.032c-.331-.047-.442-.2-.127-.367.219-.116.7-.252.245-.422a3.164,3.164,0,0,0-1.761-.2c-.667.16.212.359.1.558a14.827,14.827,0,0,0-1.894.173c-.388.107-.388.107-.54-.252.3-.143,1.138.023.922-.382-.172-.325-.706-.186-1.151-.074-.291.072-.661.036-.968.094-.358.07-.419.212-.1.364.49.165.687.4.5.712-.421.137-.779.23-1.062-.129-.168-.212-.809-.289-.934-.126-.346.46-.691.984-.057,1.453a2.292,2.292,0,0,0,1.7.159c.293-.057.381-.309.219-.494-.2-.231-.232-.223.129-.338a6.721,6.721,0,0,1,1.76.175.1.1,0,0,1,.049.1l.1.03c.806.262,1.417,1.244,2.544.169l.077,0c.12.74.594.928,1.8.809h0a.432.432,0,0,1,.215.016,9.306,9.306,0,0,0,3.079-.238,2.487,2.487,0,0,0,.415-.069c.086-.235.255-.243.594-.107s.946.231,1.057-.027c.146-.341.812-.88.3-1.014-.968-.251-1.077-.948-2.092-1.078-.856-.109-.8-.409-.684-.786.6.125.921.5,1.608.368.724.1,1.549-.22,2.208.165-.232.268-1.416.269-.709.8.5.471,1,.64,1.5,0a1.034,1.034,0,0,1,.743.159c.388.218.87.08,1.309.11.389.193,1.35.011,1.3.249-.139.623.964.833,1.1,1.326.036.127.338.245.115.378-.2.122-.414.044-.654-.03-.591-.182-1,.16-1.523.21.179.222.271.583.553.639a3.559,3.559,0,0,0,2,.076,1.8,1.8,0,0,1,1.808.034,2.705,2.705,0,0,0,2.358-.126c.613-.293.465-.613-.072-.9,0-.236-.355-.367-.515-.555.032-.256-.332-.338-.608-.475-.8-.4-1.433-.863-1.389-1.515.61.3,1.2-.043,1.8-.017.311.107.65-.12.956.027.245.3.477.6-.5.56-.349-.037-.563.046-.633.236-.047.129.062.223.271.279a1.307,1.307,0,0,0,1.177-.22c.6-.806,1.805-.636,2.942-.574h0c-.292.606-1.891,1.044-.739,1.834-.226.282-.25.623.3.7.528.07.663-.256.657-.528h0c-.06-.143-.12-.288-.179-.432,1.029-.073,1.918-.064,2.249.677.136.3.677.465,1.214.132a.173.173,0,0,1,.062-.116,2.251,2.251,0,0,0,1.709.7c.757-.042.616-.458.969-.815.01.478.186.686.933.45a1.412,1.412,0,0,1,.9,0,1.157,1.157,0,0,0,1.436-.349l1.782.016c.5.066.462.677,1.3.407.284-.093.618-.162.568-.4a.488.488,0,0,0-.474-.442c-.538.017-1.112-.465-1.615.017-.348.013-.77.331-.981.115-.534-.551-1.748-.679-2.362-1.263h2.858c.3-.086.716.089.965-.127l.75-.142a4.45,4.45,0,0,0,4.006.265c.309.084.513-.063.762-.11l.052.288c.109.352.757.651.978.332.438-.633.754-.269,1.257-.122a2.662,2.662,0,0,0,1.124.14,1.864,1.864,0,0,1,1.969.533,1.333,1.333,0,0,0,1.078.491c.753.011.573-.308.548-.533a3.538,3.538,0,0,0-.238-.734l1.3-.009.455.016a4.385,4.385,0,0,0,2.454-.159h0c.308.036.4-.4.816-.119-.046.18.057.377.364.384a6.976,6.976,0,0,1,2.4.752.624.624,0,0,0,.621.095,1.55,1.55,0,0,1,1.674.319l.976.273c.294.246.745.147,1.137.157a27.872,27.872,0,0,0,2.991-.212c.667-.052.817-.067.528-.411s-.11-.56.774-.674c-.624.362-.717.584.176.59.372,0,.746,0,1.118,0a.773.773,0,0,0,1.18.441,4.238,4.238,0,0,1,1.173-.342c.288-.059.525-.189.384-.375a.548.548,0,0,0-.7-.046c-.57.379-1.158-.029-1.725.042h0c-.291-.08-1.025.193-.782-.312l.982-.272,1.081-.011c.057,0,.113,0,.17,0h0c.584-.023,1.516.238,1.172-.511-.106-.23.444-.089.64-.179a1.871,1.871,0,0,1,1.221.18c.354.484-.3,1.15.848,1.492a.347.347,0,0,1,.169.039c1.082.094,2.092.753,3.267.135l.5-.02a1.29,1.29,0,0,0,.355-.011,5.1,5.1,0,0,0,1.157-1.347c.223-.531.743-.9,1.757-1.022a12.345,12.345,0,0,1,2.686.168c-.06.152-.218.228-.5.255-.252.024-.693.024-.505.265.137.176.039.46.5.515.351.044.442-.155.6-.285a2.4,2.4,0,0,1,.467-.218h0c.719-.072.964-.309.766-.7a.486.486,0,0,1,.219-.014c.737.146.627-.328,1.012-.44l.082-.212a12.644,12.644,0,0,1,2.166.779c-.643.069-.611.454-.943.671-.2.13.169.2.437.166.123-.013.2-.053.222-.123.182-.142.438-.082.677-.086.276,0,.663.037.732-.163s-.378-.2-.577-.3h0c-.049-.219.014-.4.492-.419a3.745,3.745,0,0,0,1.976-.013c.185.073.545.142.367.283-.385.308-.272.693-.59,1h0c.606.321,1.759-.192,2.087.527.621-.713,1.572-.916,2.991-.953-1.364.535-1.364.558-.286,1.12.636.3,1.118-.074,1.573-.185.235-.057-.208-.318-.578-.378.019-.163-.15-.335.467-.209.676.137.819-.282.951-.558.094-.2-.22-.23-.467-.188-1.3.233-1.227-.245-1.18-.712h0a4.221,4.221,0,0,0,1.818-.074c.272-.027.437-.146.382-.309a.415.415,0,0,0-.447-.195c-.891.252-1.969-.133-2.8.275-.979-.076-1.508.145-1.363.717.083.328-.2.4-.663.428h0c-.47-.464-.362-1.309-2.036-.978l-.21-.084c.083-.256-.869-.236-.472-.6.543-.5-.064-.584-.759-.621a.583.583,0,0,0-.491-.163l-.282-.246c-.339.013.507-.726-.588-.281-.338.136-.351-.167-.421-.308.223-.193-.077-.291-.236-.415.541-.109,1.237-.454,1.18.282-.009.116.365.162.631.123,1.081-.077,1.831.56,2.938.431a.665.665,0,0,1-.024-.262.257.257,0,0,1,.024.262,3.594,3.594,0,0,1,1.5-.275c.557-.22,1.495-.064,1.768-.567l-.039-.258.056-.153a4.085,4.085,0,0,0,1.512-.381h0a1.716,1.716,0,0,1,.939-.01,1.181,1.181,0,0,0,1.011.062c.684-.253.828.072,1.084.289.661.5,1.14-.052,1.707-.093h.007c-.684.838.571.253.9.409-1.131-.909.989-.69,1.244-1.13.15-.259.338.157.6.152a3.869,3.869,0,0,0,1.291-.03c.588.407-.3.344-.47.371-.461.076-.919.087-.766.464,0,.245.6.441.186.719h0c-.235-.052-.309-.316-.69-.175-.242.092-.147.226-.163.362-.054.47.87.759.671,1.243h0a2.357,2.357,0,0,0-1.373-.165c-1.029.1-1.1.606-1.645.893l-.007,0c-.178-.057-.351-.117-.531-.169a1.75,1.75,0,0,0-1.333.16c-.3.176-.165.441.377.525.183.082.4.149.419.3-.371.044-.021.467-.636.385h0c-1.187-.342-1.739.009-2.073.6a6.2,6.2,0,0,0,1.794-.1h0c.772-.112,1.291-.6,2.225-.471h0a.26.26,0,0,1,.2.288c-.186.053-.407.13-.356.245a.465.465,0,0,0,.481.147,3.728,3.728,0,0,1,.9-.185c1.631.17.972-.255.548-.629-.029-.261-1.082.009-.706-.491.321.044.484.356.912.215h0a1.091,1.091,0,0,1,.336-.073,2.467,2.467,0,0,0,2.6-.682c.155-.185.355-.142.591-.092a.55.55,0,0,0,.2.019l.339.225.095.534c.4.069.669-.683.991-.072.139.265-.246.548.653.6.734.043,1.266.054,1.566-.377a3.479,3.479,0,0,1-2.312-1.2h0c.535-.613,1.721-.9,2.331-1.48.115-.11.438-.17.246-.342-.223-.2-.533,0-.793-.044h0l-.094-.143a.193.193,0,0,1,.066-.117c1.363.047,2.312-.545,3.529-.723.872-.127,1.528.355,2.385.268.4.027.192-.349.679-.3,1.025.1.609-.242.442-.5.472-.291.994.119,1.477-.033.777.044.594.442.806.7.316.49.978.444,1.676.341.382.242.2.547.292.822-.072.136-.43.266-.021.411a1.2,1.2,0,0,0,1.742.421h0c.654.146.367.278-.02.408-.786.365-.281.541.326.7,1.337.126,2.251-.133,2.672-.752.143-.21.213-.515.759-.46a15.079,15.079,0,0,0,3.291-.132c-.142.537.732.239,1.044.4.142.8.46.925,1.652.659a4.356,4.356,0,0,0,1.591.429,3.559,3.559,0,0,0,2.241-.129l.471-.159c.819.053,1.352-.68,2.3-.266a7.259,7.259,0,0,0,3.369.027c.212-.024.233-.113.167-.213s-.239-.225-.308-.173c-.636.48-1.153-.1-1.727-.046-.272-.228-1.137-.448-.673-.694,1.257-.666-.1-.565-.565-.737-.046-.086-.175-.2-.122-.251.175-.18.368-.354-.146-.424-.447-.06-.707.063-.7.341a1.465,1.465,0,0,1-.066.336,12.216,12.216,0,0,1-1.36-.024c-.946-.125-1.058-.4-.328-.777.889-.46.5-.953.186-1.453-.252-.188-.889-.213-.754-.565.109-.132-.016-.368.444-.344.962.05,1.154-.208.714-.623-.391-.368.086-.494.444-.4a6.514,6.514,0,0,0,2.129-.05l.024.019h.034c.283.4.444.789-.18,1.152-.176.1-.235.252-.086.389a1.016,1.016,0,0,0,.769.149c.258-.019.454-.232.782-.073-.109.262-.972.166-.83.51a.9.9,0,0,0,.868.432c1-.046.859.345.916.674v.438c-.223.375.477.651.314,1.052-.1.238.464.19.6.073a.872.872,0,0,1,1.269-.072c.226.142,1.049.209,1.291-.113.23-.306-.388-.335-.749-.421a1.144,1.144,0,0,1-.2-.082c.445-.155.042-.281-.042-.418.544-.3,1.489-.374,1.513-.852.969.079.511.557.813.852.379-.084.043-.472.739-.417-.412.523.19.524.859.543a3.226,3.226,0,0,0,2.233-.58.958.958,0,0,1,1.205-.132,1.9,1.9,0,0,0,1.589.276c.833-.156.767.361,1.172.525.276.112-.051.372-.449.46-.379.08-.769.185-.4.444a.949.949,0,0,0,.988,0c.527-.3,1.433-.454,1.191-1.037-.03-.072-.077-.2.168-.225.176-.014.409.04.375.129-.106.278.551.571-.046.826-.156.066-.285.139-.1.2a4.23,4.23,0,0,0,1.708.057c.5-.053.415-.271.328-.5s-.278-.67.228-.66c.8.013,1.374-.292,2.092-.3.8-.014,1.532.185,1.327.679-.338.816.63,1,1.568,1.246.306-.026.316.278.763.178-.334-.335.143-.52.46-.74a5,5,0,0,0,3.6-.07c.2-.106.574-.1.672.033.6.792,2.14.762,3.218,1.323-.13-.545-1.237-.8-.568-1.316.249.069.041.756.849.119a5.892,5.892,0,0,1,2.787-.889c1.223-.093,1.127-.311.742-.762,1.029.067,1.147-.251,1.493-.747.424-.608-.463-.7-.706-1.006a1.848,1.848,0,0,0-1.633-.3c-1.135.243-1.4-.069-1.4-.614a1.173,1.173,0,0,1,1.36-.112,2.586,2.586,0,0,0,2.591.166,1.183,1.183,0,0,1,.348.037,33.315,33.315,0,0,0,4.218-.241l.19-.157c-.852-.08-.812-.448-.843-.8-.007-.09-.149-.163-.351-.153l-.74-.016a5.865,5.865,0,0,0-3.007.129c-.176.052-.452.033-.411.192s.235.253.535.16c.709-.218.472.034.364.228l-.491.15c-.493.157-.852-.07-1.266-.142.084-.387.848-.925-.746-.919a.217.217,0,1,1-.039-.431c1.36-.107.952-.594.806-1.039h0a1.3,1.3,0,0,1,1.19.158.9.9,0,0,0,1.132-.009c.374-.308-.013-.392-.457-.485-.232-.047-.733-.16-.454-.316.654-.368-.417-.5-.2-.842.889.263.84-.084.862-.419s-.358-.45-.8-.551h0c-.408-.178-.412-.408-.278-.659.524-.1.606.49,1.223.252.563.113,1.244-.113,1.74.193a6.265,6.265,0,0,0,2.421.044.809.809,0,0,0,.148-.049l.236-.023c.185,1.319,1.369.115,2.043.239a.548.548,0,0,0,.654-.407c.089-.3-.321-.312-.637-.418s-.878.076-.976-.3a11.338,11.338,0,0,0,3.081-.059,2.846,2.846,0,0,1,1.674.206l.657.16c1.181-.322,2.371-.636,3.538-.974.358-.1.441-.279.034-.435-.309-.123-.606-.251-.671-.47.763-.341,1.044-.057,1.311.241,0,.033.027.063.084.093.616.334.548.61-.2.846-.309.1-.523.248-.368.464a.693.693,0,0,0,.624.166c1.061-.1,2.135-.15,3.178-.322.477-.079.48-.271.62-.455.242-.319-.283-.188-.455-.258-.322-.13-.328-.125.292-.318.422-.062.379-.513,1.024-.388l.063-.017c.013.541.45.846,1.462.832a9.7,9.7,0,0,1,2.294-.123.709.709,0,0,0-.011.122,1.784,1.784,0,0,0-1.4.912,6.4,6.4,0,0,1,1.911-.178h0a1.6,1.6,0,0,0,1.43.188,4.464,4.464,0,0,1,2.067-.341c.554.006.76-.15.485-.45.358-.122.889-.1,1.035-.4,1.521.185,2.458-.494,3.642-.8a2.741,2.741,0,0,1,.878-.189,1.273,1.273,0,0,1,1.46-.757c1.077.208.959-.137,1.067-.468a1.242,1.242,0,0,1,.157-.4c.072-.1.608-.087.263-.272-.223-.119-.558-.411-.753-.3-.82.474-1.778.1-2.651.182-1.917.182-3.8-.326-5.742-.282-.351.009-1.015-.186-.84-.391.429-.5-.451-.548-.578-.438-.557.487-.692-.547-1.16-.064-.308.318-.485-.079-.749-.079h0c0-.241,0-.481,0-.72.932-.348,1.825.245,2.753.036a117.33,117.33,0,0,0,15.449-.795,23.146,23.146,0,0,0,3.861-.488,26.776,26.776,0,0,1,3.078.2,4.7,4.7,0,0,0,2.229.107c.534-.083.586-.116.5-.319-.407-.4-.586-.807-.275-1.254.475-.087,1.054-.07,1.4-.428-1.679-.2-2.968-.869-4.808-.743-1.17.08-2.537-.037-3.012-.892-.127-.229-.472-.23-.792-.275a12,12,0,0,0-2.858-.014c-2.192.221-4.409.168-6.614.225a5.157,5.157,0,0,1-1.877-.155c.513-.384,1.41-.352,1.936-.71a6.543,6.543,0,0,0-2.076-.252,29.954,29.954,0,0,1-4.361-.016,16.173,16.173,0,0,0-2.536-.271,1.939,1.939,0,0,0-1.152-.136c-.441,0-.485-.107-.364-.3h0a9.8,9.8,0,0,1,1.442.076.887.887,0,0,0,1.08-.349h0c.637.059.9-.475,1.482-.351a1.615,1.615,0,0,0,1.529-.356c.1.043.2.125.285.119,1.134-.074,2.209-.324,3.387-.3.444.011.167-.239.1-.381h0c2.185.036,4.473.364,6.266-.7h0a8.389,8.389,0,0,0,3.425-.712,1.945,1.945,0,0,1,1.061-.122c.04.006.089.01.142.013a3.885,3.885,0,0,0,.942-.036,16.868,16.868,0,0,0,4.43-.922c.063-.047.026-.137.036-.206a3.265,3.265,0,0,1,1.191-.132,24.686,24.686,0,0,0,5.008-.955c.206-.066.491-.1.309-.358a20.7,20.7,0,0,0-5.317.4c-4.394.932-9.065,1.183-13.525,1.944-1.851.316-3.857.515-5.827.649-2.45.166-4.76.709-7.329.641a28.1,28.1,0,0,0-4.644.63c-1.492.193-3.028.189-4.538.365-2.193.255-4.5.614-6.669-.064a13.524,13.524,0,0,0-4.755-.6,5.675,5.675,0,0,0-1.506-.269c-2.2-.318-4.324.268-6.53.185a30.9,30.9,0,0,0-5.641.375l-.451.016a7.537,7.537,0,0,0-1.331-.117c-1.578.145-3.143.339-4.712.515-2.631.059-5.226-.285-7.868-.129.507-.2,1.074-.03,1.722-.268a16.946,16.946,0,0,1-4.589-.283,17.036,17.036,0,0,0-3.271-.3.624.624,0,0,0-.034-.107c.034-.157-.544-.3-.222-.391a2.319,2.319,0,0,1,1.758-.2,1.919,1.919,0,0,0,1.415-.262c.157-.139-.085-.249-.315-.322a1.012,1.012,0,0,0-1.127.172h0c-.173.033-.342.142-.534.032s0-.2.052-.3c.07-.145-.013-.437.339-.381a23.783,23.783,0,0,0,3.688-.066l1.437-.007c.422-.518-.308-.919-.45-1.38a4.219,4.219,0,0,0,.984-.2,1.206,1.206,0,0,1,1.281.033c.315.362,1.407.7.075,1.114-.251.077-.1.3-.087.458.922.062.083.543.531.717h0l-.02.14-.013-.009-.992-.186c-.006.355.029.621.742.61.407.01.822.248,1.217-.017a3.813,3.813,0,0,0,2.676-.133.835.835,0,0,1,.866,0,5.645,5.645,0,0,0,2.832.271c.341,0,.71-.092.666-.332-.059-.3-.454-.125-.747-.149-.946-.079-1.961-.16-1.977-.9a3.024,3.024,0,0,1-.929.3,4,4,0,0,0,.929-.3c-.039-.366-.325-.553-1.019-.44a3.97,3.97,0,0,1-1.543-.142c-.872-.1-1.014-.451-.375-.795.263-.14.7-.219.577-.48-.22-.46.265-.763.885-.747,1.241.031,2.4-.762,3.674-.106-.152.246-1.067,0-.9.4.143.332.77.126,1.16.2.23.153-.072.311.006.457a.527.527,0,0,0,.792.12c.188-.208.593-.461.273-.753l-.962-.4c.452-.311.452-.311-.832-.779.213-.2.737-.331.5-.639.7-.349.321.377.792.256.177.712,1.061.689,2,.607-.245.286-.031.465.475.471a1.458,1.458,0,0,1,1.264.627c.01.15-.664.256-.122.432a3.162,3.162,0,0,1,1.313.879c.107.1.278.273.4.185.6-.418,1.631-.265,2.2-.518a1.8,1.8,0,0,1,1.512-.132,1.442,1.442,0,0,0,.9.275c.755.09,1.813-.036,1.624.729-.024.1.1.182.285.193.268.017.384-.1.388-.216.014-.357.522-.251.822-.358a6.738,6.738,0,0,1,3.582-.05c.1.016.258-.087.389-.135.737-.262,1.294.3,2.01.14.444.1.779-.176,1.308-.169-.16.415-1.118.563-.813,1.011l-.083.033-.1-.007c-.3.006-.75-.251-.817.162-.072.434.906,1.065,1.674,1.1.541.023.754-.083.72-.387-.066-.563-.951-1.2.464-1.642.182-.057-.351-.206-.057-.345,1.088.72,1.354.727,3.082.342a1.668,1.668,0,0,1,1.874.508h-1.9c.5.145,1.019.226.876.51-.448.885,1.006.838,1.757,1.183-.258-.326.14-.613.019-.912v-.369c-.186-.452.251-.533.878-.53.148.251-.564.238-.351.475,2.425-.208,2.425-.208,2.54-.5-.514-.133-.85.276-1.427.142l.964-.843c.308.4,1.154.717,1.4.567.613-.374,2.149-.07,2.047-.9.186-.412-.69-.513-.793-.846-.014-.049-.369-.143-.222-.147.707-.026.945-.535,1.841-.439a4.845,4.845,0,0,0,2.945-.1c.273-.037.551-.066.819-.115.2-.037.415-.14.334-.245-.113-.145-.418-.082-.651-.077.189-.657.189-.657-.51-.714-.521-.384-1.463.029-1.994-.335h0c-.306-.482-1.21-.5-1.838-.726-.76-.271-.8-.43.041-.618h0c.07.342.547.452,1.029.518a1.016,1.016,0,0,0,.922-.258c.113-.16.163-.419.007-.531a.845.845,0,0,0-.926-.017l-.253-.01c.06-.219.142-.425.676-.368.168.017.533.1.377-.086-.484-.576.335-.521.858-.709.641-.23,1.424-.447,1.6-.951l.488,0c.3.306,1-.04,1.306.259-.1.336.146.568.717.4.41-.123.966-.123,1.244-.382a.4.4,0,0,0-.029-.533c-.092-.179-.077-.3.357-.288.394.011.79-.013,1.185-.021a4.429,4.429,0,0,0,.472.072c.893.037,1.7.674,2.561.295a11.028,11.028,0,0,1,2.47-.7c.594-.106.19-.661.962-.48h0c.4.332-.565.424-.4.714-.78.421.271.346.435.511a13.3,13.3,0,0,1,1.357.034,6.39,6.39,0,0,0,2.119-.235c1.091-.216.308-.664.3-1.019,0-.072-.029-.193.223-.225.322.218.336.637,1.11.587.308.07.607.262.935.02l1.754.152h0c.069.291-.275.712.712.713a.842.842,0,0,0,.54.116h0a1.469,1.469,0,0,0,2.033-.4l.976-.165h0c2.113-.059,3.667-.573,4.059-1.344a4.528,4.528,0,0,1,1.708.759c.411-.241.195-.407.046-.6-.188-.251.04-.326.517-.332.835-.01,1.878.073,1.725-.712-.067-.346.636-.22.833-.442-.472-.232-.846-.558-1.579-.242-.319.139-.614.136-.787-.112-.086-.122-.292-.226-.422-.063-.351.441-1.055.3-1.516.235-1.6-.245-3.207-.458-4.842-.611-.223-.021-.593,0-.631-.255-.089-.587-.109-.586-1.108-.223a1.308,1.308,0,0,1-.3.01l-.251-.044c-.464-.129-.782-.464-1.323-.394a3.216,3.216,0,0,1-.872-.007c-.2-.044-.408-.092-.611-.143a4.932,4.932,0,0,1-.9-.4,11.544,11.544,0,0,0-3.276-.724,6.791,6.791,0,0,1-1.973-.344,4.489,4.489,0,0,0-2.557-.079l-1.038.173-2.921-.325c.634-.547-.341-.535-.777-.71-.064-.316.574-.215.739-.4l.763-.286a3.442,3.442,0,0,0,1.744-.57c1.442.049,2.165-.407,2.5-1.132.925-.222.879-.938,1.847-1.154.129-.029-.066-.272-.218-.279-1.032-.043-1.56-.706-2.644-.666-.127-.079-.507-.082-.385-.223.43-.5.069-.747-.76-.912a1.68,1.68,0,0,1-.517-.3l1.649-.464c.627-.1,1.487-.113,1.7-.481.258-.448.714-.286,1.151-.256a4.314,4.314,0,0,0,.809.115,48.788,48.788,0,0,0,6.148-.457c.063.249-.538.266-.58.637.283-.292.807.153.946-.295.052-.163.388-.2.719-.189a8.56,8.56,0,0,0,3.287-.394c.5-.182,1.4-.468,1.674-.246.684.558,1.246.238,1.883.083.285-.07.52-.123.726.076a.364.364,0,0,0,.492.007c.137-.126.031-.229-.193-.272-.581-.113-.7-.361-.654-.664a5.053,5.053,0,0,0,1.2-.461,7.09,7.09,0,0,0,2.283-.432l.245-.13c.568.014.822-.543,1.533-.269h0c.745-.073,1.479-.716,2.242-.014a.214.214,0,0,0,.116,0c.573-.293.883-.021,1.314.153,1.092.442,2.351.1,2.644-.633.122-.3.039-.654.448-.918C621,110.9,621.166,110.5,620.3,110.338Zm-38.4-14.885.076.026-.083.021A.164.164,0,0,0,581.906,95.453Zm-.8-42.313v.009l-.017,0Zm-1.755,41.18.04.024a.778.778,0,0,1-.087.024A.51.51,0,0,0,579.346,94.32ZM562.5,54.258l-.01.006h0v0Zm-2.766-.671,0,0,0,0Zm-.239,43.49.023.009-.059.009ZM557.42,54.5l.014,0-.052.006Zm9.36-5.715-.052.007,0-.007Zm-3.092-.444.053.007.017-.007.011.01h-.032l-.056.026Zm-21.717,1.638a.469.469,0,0,0,.143.046.582.582,0,0,1-.377.127C541.828,50.1,541.948,50.05,541.971,49.979Zm-4.825.906,0,0-.014.029Zm-7.535-1.7.009.016-.046-.02Zm-28.043-2.371h-.024a.275.275,0,0,1,0-.034A.135.135,0,0,0,501.568,46.813Zm-3.787-.037-.172,0-.013-.032C497.658,46.756,497.72,46.764,497.781,46.776Zm-18.912-.033c.03-.017.06-.03.089-.044a.21.21,0,0,0,.043.044Zm-2.621.218c-.007.01-.019.019-.027.029l-.05-.024Zm-2.73,1.164-.023.007v-.01ZM74.919,73.389l0-.007.1,0C74.986,73.385,74.953,73.386,74.919,73.389Zm3.377-.057c-.066-.011-.13-.019-.2-.024-.019-.007-.042-.011-.062-.017a2.314,2.314,0,0,1,.259.04ZM90.09,78.925h0l.064.054Zm35.282-12.3.006-.007v.009Zm17.021,1.4.017-.011c.024.007.047.016.07.024C142.449,68.03,142.422,68.028,142.393,68.023Zm2.8-6.9c.009.01.019.02.027.032l-.039-.009Zm.006,20.388h.026l.006.009Zm1.509.475Zm1.413-16.776a.283.283,0,0,0-.043-.049l.132-.024Zm3.824-4.405-.047-.034h0v0l.017.016.03.02Zm3.88,4.955.029-.017.009.019Zm-55.444,24.99-.011-.009.019,0Zm13.4,10.806a1.609,1.609,0,0,0,.183-.01C113.932,101.6,113.88,101.613,113.778,101.559Zm-43.292,9.3v-.01l.011.006Zm7.188.951h0a.542.542,0,0,0,.062-.014A.4.4,0,0,1,77.675,111.806Zm14.506,3.4-.189-.011a3.037,3.037,0,0,0-.932.013l-.125.044c-.172-.069-.385-.082-.435-.006-.291.451-.706.132-1.067.12a1.033,1.033,0,0,0-.252.016c-.042-.024-.084-.047-.129-.072.178-.185.787-.132.651-.419a.627.627,0,0,1-.052-.142c.057-.019.113-.037.169-.062.084-.036.271.082.419.11.454.07.9.146,1.37.176q.311,0,.623.017a1.253,1.253,0,0,1,.5.156A2.514,2.514,0,0,0,92.18,115.208ZM86.8,152.917H86.8v0l0,0Zm19.309-49.183.056-.057a.154.154,0,0,0,.031.057Zm14.955-2.378,0-.02.006.014Zm3.349.72h0Zm1.51,51.675-.033-.016.047-.019Zm2.543-51.977c.034,0,.067,0,.1,0l.052.01Zm12.224-15.286-.007,0a.4.4,0,0,0,.06-.049h0A.21.21,0,0,1,140.694,86.487Zm261.781-35.56a.292.292,0,0,0,.157.275,3.059,3.059,0,0,1-1.32-.365A3.328,3.328,0,0,0,402.475,50.928Zm-37.2-1.6.059-.031c.027.014.057.027.082.042-.046,0-.09-.007-.14-.009h0Zm-.733-2.07.057.014-.092.017Zm-.188,3.349a.814.814,0,0,0,.641-.155.882.882,0,0,1,.737-.07c-.142.374.566.339.8.53-.261.3-.633.629.478.548a5.516,5.516,0,0,1,2.594-.125,2.468,2.468,0,0,0,.554.109l.1.021a3.461,3.461,0,0,0,1.571-.147l.275-.073c.212-.029.424-.049.637-.064a1.06,1.06,0,0,1,.16.032,2.373,2.373,0,0,0,1.593-.074h.294a2.43,2.43,0,0,0,1.326.314c1.894.043,3.662-.076,4.9-1.134.259.649,1,.83,1.748.974s2.1-.072,2.14-.336c.07-.474-.57-.693-1.223-.873-.087-.024-.16-.021-.156-.042a25.455,25.455,0,0,0,3.979-.026,4.717,4.717,0,0,1,1.959.074,3.026,3.026,0,0,0,2.284-.074,3.922,3.922,0,0,1,3.634.283c.076.074.149.147.228.216.026.179.223.306.564.349a1.994,1.994,0,0,0,1.57-.417,1.349,1.349,0,0,1,1.565-.18,3.007,3.007,0,0,0,.739.169,1.79,1.79,0,0,0,.517.077,2.4,2.4,0,0,1,.365.044c.076.014.153.026.229.039l-.007.162h0c-.679.094-1.354.2-2.039.281-.4.044-.606.19-.613.378-.009.249.394.169.657.186.027-.1-.034-.218.212-.285a.537.537,0,0,0-.212.285,4.151,4.151,0,0,0,1.558.316c.157.016.288.047.07.206a5.193,5.193,0,0,1-3.509.269,6.143,6.143,0,0,0-3.7.212,1.73,1.73,0,0,1-1.38-.04,3.313,3.313,0,0,0-2.452-.036,2.173,2.173,0,0,1-1.413.07,3.993,3.993,0,0,0-1.582-.11,2.851,2.851,0,0,1-1.423-.17,3.758,3.758,0,0,0-2.661-.252.794.794,0,0,1-.464-.023c-1.492-.388-1.546-.372-2.021.481-.11.021-.221.043-.331.06a.464.464,0,0,1-.021-.355c.042-.188.241-.487-.193-.547a.742.742,0,0,0-.875.482.77.77,0,0,1-.316.475,2.7,2.7,0,0,1-.528-.133,3.228,3.228,0,0,1-.3-.252,1.143,1.143,0,0,0-.945-.256c-.342.04-.418.195-.438.372a.541.541,0,0,1-.163.352.521.521,0,0,1-.447.073,2.669,2.669,0,0,0-.551-.115c-.047-.023-.093-.047-.136-.072-.578-.338-.722-.3-.9.119a1.4,1.4,0,0,1-.109.2c-.2.1-.385.226-.58.339a3.023,3.023,0,0,1-1.44.037,16.4,16.4,0,0,1-2.959-.853c-.073-.026-.149-.049-.225-.073a2.111,2.111,0,0,0-.81-.183,3.666,3.666,0,0,0-.471-.036h-.318c-.548-.013-1.1,0-1.652.019l-1.523.024a10.657,10.657,0,0,1-1.93-.175c.1-.093.2-.185.3-.278-.355-.584-1.054-.514-1.824-.3l-.848.026a3.35,3.35,0,0,1,2.868-.139C362.444,50.54,363.374,50.557,364.351,50.6Zm-4.46-1.533c.932,0,1.964.216,2.732-.252h.057l.212,0c-.269.334-.57.666-.475,1.041h-.036c-.611,0-1.223-.006-1.835.019a1.436,1.436,0,0,1-.182.047c.215-.281.107-.457-.646-.422-.039-.023-.076-.043-.113-.063.066-.013.13-.027.195-.046-.017-.208-.166-.308-.379-.361A3.33,3.33,0,0,0,359.892,49.071Zm-1.664,2.122c.106.02.1.044.066.072a2.1,2.1,0,0,0-.259-.082A.682.682,0,0,1,358.228,51.193Zm-9.678,1.429a2.451,2.451,0,0,1,.606-.16,4.078,4.078,0,0,0,1.268-.069c.286-.08.736-.145.7-.348-.044-.275-.5-.146-.8-.152l-.909-.017-.145-.03a2.363,2.363,0,0,1-.329-.087c-.487-.195-1.263-.189-1.433-.607a8.025,8.025,0,0,1,1.923-.1,9.433,9.433,0,0,0,3.058.288l-.019-.02a.616.616,0,0,0,.319.01l.047-.027c1.184-.023,2.334-.21,3.515-.243a.353.353,0,0,1-.014.052c.52.848,1.072,1.014,2.226.67l.016-.024.348.016h0c.9.544,2.053.14,3.068.253-.143.149-.477.116-.72.169l-.192,0c-.935.269-.933.7-.472,1.268-1.857-.273-3.628.067-5.31-.4a6.614,6.614,0,0,0-2.465-.115,15.842,15.842,0,0,1-5.994-.239A4.366,4.366,0,0,0,348.55,52.621Zm-6.4-3a8.717,8.717,0,0,0,1.691.034,7.456,7.456,0,0,0,1.641-.342,1.056,1.056,0,0,0,.206-.069c.1,0,.183.021.1.143a1.492,1.492,0,0,0-.2.873.188.188,0,0,0,.046.066,2.287,2.287,0,0,1-.584.188c-.192.027-.384.053-.576.074-.349.03-.709.044-1.047.09-.242.013-.484.02-.73.019-.193,0-.388,0-.581,0h-.082c-.056-.147-.016-.314-.2-.461C341.4,49.9,341.545,49.679,342.148,49.625Zm-6.714-.359-.074.031a.432.432,0,0,0,0-.073Zm-1.248.389h0v0Zm-.326,3.509a.644.644,0,0,0,.084.2C333.828,53.293,333.78,53.22,333.858,53.164ZM164.572,57.921a.827.827,0,0,1,.689.014c-.3.014-.593.04-.885.07C164.442,57.98,164.508,57.952,164.572,57.921ZM389.1,164.636l-.013-.007.019.006Zm.019.009-.013-.006v0l.034.011Zm38.7,3.112a.778.778,0,0,0,.289-.143C428.078,167.692,427.992,167.747,427.821,167.757Zm10.527,1.092h.013a.416.416,0,0,0-.052.046Zm-.049.056c-.152.193.07.382.2.628C438.227,169.294,438.147,169.1,438.3,168.906Zm6.974-121.223-.029-.014.04-.019A.091.091,0,0,0,445.273,47.682ZM450.228,167.4a.516.516,0,0,1,.076.259C450.127,167.586,450.14,167.494,450.228,167.4Zm1.094-119.3.069,0a.238.238,0,0,0,0,.046A.731.731,0,0,1,451.322,48.095ZM453,169.057l-.006-.01h.013Zm5.135-2.417-.014-.039.1.037Zm1.009-2.584.043-.021c.021.021.044.04.066.059A.612.612,0,0,1,459.145,164.057Zm1.117.037h-.011v-.013l.011.011a.07.07,0,0,1,.026-.054.486.486,0,0,0,.047.047ZM462.7,165.3c.112-.02.185-.056.2-.113.06-.009.12-.019.179-.031C463.046,165.272,462.985,165.367,462.7,165.3Zm11.277-1.7,0-.006h0Zm4.722-2.46v-.01l.011.006Zm.724,1.8h0Zm.014-.006h0l0,0v0h0Zm125.9-15.574c-.053,0-.1,0-.157.009.031.059-.042.01-.019-.029C605.222,147.352,605.281,147.359,605.338,147.368Zm-18.878,1.1a5.344,5.344,0,0,1-1.432.054C585.505,148.5,585.982,148.484,586.46,148.467Zm-6.165-6.3Zm-7.475,10.614h0Zm-4.521.7a.348.348,0,0,0,.241.107l-.09.006a1.66,1.66,0,0,1-1.416.188C567.271,153.438,567.87,153.57,568.3,153.477Zm-1.8-1.132v0h0Zm-4.765-.422h0Zm-8.5,5.79-.01.014-.011-.011Zm-.039,0,.016,0h-.019Zm-.262.385a.11.11,0,0,0,0,.021l-.031,0Zm-1.258-3.234.014.017-.043-.007Zm-3.513-2.076-.006.009-.024-.007Zm-.511,9.476a1.178,1.178,0,0,0,1.049-.586.458.458,0,0,0,.193-.013l.026.036c1.074.013,1.53,1.029,2.9.531-.3.252-.548.465.13.613l.036-.006c.1.123.186.3-.089.286-.839-.059-.643.248-.676.482l-.033.013a.118.118,0,0,0-.013.159c-.215.18-.064.314.22.431a.09.09,0,0,0,.1,0c.117-.066.009.1-.093.027-.422-.156-.777-.362-1.207-.511.245-.617.155-.767-.732-.783l-.026,0c-.533-.067-1.082-.01-1.616-.077-.124-.026-.248-.053-.376-.076-.109-.026-.219-.046-.329-.063C546.844,162.523,546.82,162.347,547.648,162.263Zm-.929,1.492.011.02h0l-.02,0,.017,0c-.246.146-.235.389-.543.511C546.073,164.012,546.1,163.783,546.718,163.755Zm-1.356-12.914.05.007-.029,0-.029-.011Zm-4.221.089.01.006-.013-.006Zm-3.5,7.545a.46.46,0,0,0-.113.007c-.009-.029-.017-.06-.027-.09Zm-.462-16.948v.007l-.106-.021C537.1,141.518,537.139,141.522,537.175,141.526Zm-.375,19.048c-.1-.007-.177-.031-.186-.089C536.678,160.513,536.74,160.543,536.8,160.575Zm-2.166-18.4h0Zm.067-.2c.046.043.044.1-.046.195l-.016.006h-.009l-.006.006h0l-.093,0A1.315,1.315,0,0,1,534.7,141.969Zm-1.3,11.239,0,0H533.4Zm-2.239,8.737-.873-.136A2.708,2.708,0,0,1,531.163,161.945Zm-2.57-20.775-.086.027-.017-.027Zm-1.843-.544-.042-.023h0C526.665,140.523,526.828,140.6,526.751,140.626Zm49.475-5.655-.019-.021a1.306,1.306,0,0,1,.2,0C576.348,134.958,576.288,134.965,576.226,134.971Zm0-.729a1.466,1.466,0,0,0-.273-.016.647.647,0,0,0-.021-.193A.566.566,0,0,0,576.222,134.242ZM530.631,99.258c.009-.007.013-.014.02-.021a.812.812,0,0,0,.475.069c-.219.076-.471.182-.7,0A1.114,1.114,0,0,0,530.631,99.258ZM515.876,52.4c.843-.073,1.52-.431,2.352-.44a48.636,48.636,0,0,0,5.3-.4c.551-.066.891.007.986.335l.006,0c-.666.02-1.1.189-1.082.616.01.316-.281.411-.789.369-.414-.033-.826.019-1.238.013-.5-.009-1.087.076-1.008-.435.043-.278-.474-.352-.918-.335-.5.02-.971.116-1.456.175-.378.047-.742.133-.8.377-.079.293.424.292.732.4a9.51,9.51,0,0,0-1.253.292l-.123-.006c-.057-.159-.414-.153-.609-.238C515.5,52.909,515.429,52.434,515.876,52.4Zm-1.054-1.914.05.006-.067.036A.364.364,0,0,0,514.822,50.481Zm1.032,47.035c.11.192.561.193.829.295.218.082.607.07.385.329-.3.351.027.606.4.845a1.584,1.584,0,0,1-.316.073c-.462-.057-.926-.119-1.39-.178a3.135,3.135,0,0,0-.855-.072,81.345,81.345,0,0,1-8.674-.332c-.163-.007-.325-.011-.487-.014-.026-.029-.019-.073.049-.142a.751.751,0,0,1,.823-.155c.281.087.727.162.8-.084.063-.216-.295-.369-.729-.374-.186,0-.394.1-.573-.094.351-.037.7-.069,1.051-.094l.3-.013C510.26,97.414,513.059,97.362,515.855,97.516Zm-31.922,68.3c0,.023-.006.046-.006.072a.551.551,0,0,0,.082.046h0l0,.009-.073-.039a.493.493,0,0,0-.551.236.831.831,0,0,0-.938-.1c-.325-.083-.46.173-.753.188.057-.216.61-.447-.044-.64-.079-.024-.179.019-.236-.034a1.983,1.983,0,0,0,.488-.021.269.269,0,0,0,.077-.06l2.21.039h.1C484.574,165.709,483.934,165.69,483.933,165.819Zm-1.051-1.841.036-.024a.144.144,0,0,0-.02.034l-.016-.01Zm6.253-1.35a.265.265,0,0,1,.212-.106C489.278,162.56,489.208,162.595,489.135,162.628Zm5.29-65.494.007,0v0Zm2.74-43.067a14.567,14.567,0,0,0-5.188.424,2.483,2.483,0,0,1-.974.043c-.306-.034-.61-.08-.913-.126a4.956,4.956,0,0,0-1.459-.166,5.667,5.667,0,0,0-1.284.072,1.574,1.574,0,0,0-.334.115,4.772,4.772,0,0,1-.573.137l-.732,0c.074-.083.149-.166.222-.251.017-.009.027-.017.027-.03h0a16.2,16.2,0,0,1,4.189-.657c-1.162.117-2.23-.286-3.3-.195a14.886,14.886,0,0,1-2.531-.056,2.411,2.411,0,0,0-.78-.116,2.855,2.855,0,0,0-.382.023c-.316-.02-.633-.034-.952-.034.19-.351.9-.176,1.244-.377l.02-.006a4.621,4.621,0,0,0,1.578.2,33.677,33.677,0,0,0,5.8-.5,25.1,25.1,0,0,1,5.571-.256,18.439,18.439,0,0,0,4.1-.3l.11,0c.086.4.239.465,1,.374.859-.1,1.727-.123,2.59-.183,2.188-.152,4.4.03,6.581-.2a10.032,10.032,0,0,1,2.578.186c.547.083.627.342.619.616-.01.256-.253.4-.7.387-2.05-.072-3.977.5-6.045.362a3.525,3.525,0,0,0-1.211.135.222.222,0,0,0-.047.039,3.615,3.615,0,0,0-.839.05c-.558.024-1.118.03-1.678.03a1.847,1.847,0,0,1-.968-.384c.1-.14.344-.276.05-.428a1.218,1.218,0,0,0-.989.04h0c-.455-.01-.912-.026-1.367-.026-.282,0-.656-.014-.634.219s.4.182.674.2c.457.04,1-.12,1.37.193-.236.107-.6.1-.848.185h-.139C499.463,53.887,498.341,54.108,497.166,54.066Zm3.074,111.03-.007-.017h.006v0l.016.006Zm-.059-.22a3.133,3.133,0,0,0-1.151-.137,2.976,2.976,0,0,1-.514-.145.925.925,0,0,0-.189,0,.119.119,0,0,0,.032-.113l-.011-.013a.479.479,0,0,0,.126-.093l.007-.011c.683.073.739-.336,1.047-.553.336.076.667-.79,1.009,0l.02.219C500.229,164.276,500.435,164.609,500.181,164.875Zm11.1,1.593a.515.515,0,0,0-.322-.033l-.016,0c-.752-.229-1.687-.17-2.394-.468-.024,0-.047.006-.07.009.447-.166.776-.346.149-.649-.04.023-.083.042-.125.06l.019-.037-.02.011c.146-.225-.422-.288-.354-.488.043-.129.263-.276-.087-.352a.644.644,0,0,0-.6.183c-.215.168-.46.322-.691.482l-.3.223c-.017-.014-.033-.031-.052-.046a4.918,4.918,0,0,0-2.856-.365,1.021,1.021,0,0,0-.054.116.3.3,0,0,1-.014-.037,1.126,1.126,0,0,0-1.111.442c-.54.013-1.213.576-1.585-.122-.026-.046-.043-.1-.067-.145a1.537,1.537,0,0,1,1.029-.484c.365-.319.156-.825,1.009-.985a3.089,3.089,0,0,0,1.012-.7,4.824,4.824,0,0,1,.561-.123c1.2-.117,1.389-.318.955-1.018a2.1,2.1,0,0,0-1.184-.275,7.4,7.4,0,0,1-1.85.014c-.094-.172-.724-.265-.342-.487.3-.173.505.137.8.162.116.01.235.006.352.007a10.094,10.094,0,0,0,1.1.036c.388-.03.976-.107.936-.338-.073-.418-.63-.059-.964-.1a4.014,4.014,0,0,0-.611.021c-.192-.2-.609-.052-.913-.225a1.166,1.166,0,0,0-1.4.215l-.414,0a.832.832,0,0,1,.332-.815,2.9,2.9,0,0,1,.608-.024,15.95,15.95,0,0,0,5.783-.086,4.384,4.384,0,0,1,1.032-.22l.043-.007a.511.511,0,0,1,.352.213c.279.4.651.278,1.032.083a1.628,1.628,0,0,1,.8-.3c.577.46.209.964.229,1.45a.342.342,0,0,0-.056.1.454.454,0,0,0-.133.007c-1.081-.69-1.579.192-2.365.295-.251.033-.674.175-.5.412a.934.934,0,0,0,.91.279,6.364,6.364,0,0,1,1.838.023c-.077.245-.464.588.521.491l.023-.01a1.3,1.3,0,0,1-.273.351,2.351,2.351,0,0,1-.627-.034c-.78-.113-.4-.6-.942-.621-.848-.04-.04.724-.978.7a.636.636,0,0,0-.315.106c-.311.208-.153.458-.059.664.116.256.455.077.7.033a2.479,2.479,0,0,1,2,.414c.451.356-.306.44-.429.653a.232.232,0,0,0-.119.145l.024.026c-.273.139-.879.014-.935.326l.072.026c.2.137-.482.763.647.384.362.295.865.15,1.321.146.029.014.06.027.09.042C511.288,166.281,511.209,166.356,511.282,166.469Zm-1.608-9.931.072.019-.069.017A.1.1,0,0,0,509.674,156.537Zm.676.454v-.006l.01,0Zm1.465-1.52,0-.01.011,0,.016.006Zm.807,6.017h0l.014-.03.027.033A.063.063,0,0,1,512.622,161.488Zm.419-3.606-.01,0h0l.01,0,0-.007a.246.246,0,0,1,.056-.034A.328.328,0,0,1,513.041,157.882Zm.7.84.014-.027.027.017Zm7.025-17.745a1.61,1.61,0,0,1-.291-.014c.1,0,.193.007.291.014Zm.527,17.675a.679.679,0,0,0-.1-.063.31.31,0,0,1,.152.067A.286.286,0,0,1,521.3,158.652Zm2.256-16.675-.021-.023.059,0Zm.992,15.7.016-.034.019.03Zm.037,4,0-.009.011.006Zm.391.6c.039-.007.076-.017.115-.027h.006A.432.432,0,0,1,524.974,162.276Zm4.45-24.1.01-.013.032.011Zm5.165-1.359.032,0,.037.009Zm.372,1.987a.342.342,0,0,0-.039-.069c.014.009.03.014.044.021A.129.129,0,0,1,534.962,138.808Zm13.98-4.347-.049-.053h.064Zm3.052.358a.4.4,0,0,1,.352-.2A2.474,2.474,0,0,1,551.994,134.819Zm.693-2.659a.4.4,0,0,0,.043-.02c.016.014.03.029.047.043Zm2.471-29.077-.331-.036H554.8a12.614,12.614,0,0,0-5.031.133l0,0c-.948.13-1.887-.235-2.836-.017l-.094.006a4.681,4.681,0,0,0-.488-.12c-1.121-.275-2.493.021-3.495-.385a8.623,8.623,0,0,0-3.93-.306,7.814,7.814,0,0,1-3.125-.2,2.992,2.992,0,0,0-1.559-.02,3.815,3.815,0,0,0-1.957.988,2.159,2.159,0,0,1-1.7-.293c-.011-.017-.023-.033-.033-.052-.185-.371-.676-.634-.956-.969a8.852,8.852,0,0,0-2.982-.192,3.04,3.04,0,0,0-2.013.132l-.22,0a1.356,1.356,0,0,1-.163-.1,11.3,11.3,0,0,0-2.521-.451c-.119-.029-.242-.054-.368-.073a7.013,7.013,0,0,0-2.822.019,6.923,6.923,0,0,1-1.84.06,37.229,37.229,0,0,0-5.1-.2c-1.208.1-2.315.43-3.3-.232a.253.253,0,0,0-.12-.016c-1.615.13-3.111-.306-4.687-.315-1.5-.009-2.974-.238-4.485-.18a.837.837,0,0,1-.754-.233,4.572,4.572,0,0,1,1.91-.156c1.731.113,3.432.341,5.193.356,1.875.017,3.755.368,5.582.309,1.853-.06,3.626.032,5.45.1,4.859.195,9.691.538,14.547.727a12.025,12.025,0,0,1,2.9-.021l.477.032c.2.031.409.047.611.072a5.208,5.208,0,0,0,.749.016c.358.023.717.043,1.077.063a2.1,2.1,0,0,1,.222.072,2.389,2.389,0,0,0,1.709.146,1.967,1.967,0,0,1,.391-.1l1.074.044q.155.028.309.06a19.461,19.461,0,0,0,3.57.2,20.09,20.09,0,0,1,4.037.314,6.117,6.117,0,0,0,2.159.183,12.039,12.039,0,0,1,2.724.017,26.047,26.047,0,0,0,6.977.253,2.309,2.309,0,0,1,.616.042,5.5,5.5,0,0,0,.782.192,1.951,1.951,0,0,1-.468,0,2.44,2.44,0,0,0-.362-.039c-1.225-.089-.974.747-1.784.921A3.8,3.8,0,0,0,555.158,103.083Zm17.373,26.377c-.421.308.1.684-.228,1l-.742.266a.847.847,0,0,0-.092-.031,3.408,3.408,0,0,1-1.757.135,1.734,1.734,0,0,0-1.244.173l0,.019c-1.25-.185-1.989.525-3.109.568l0-.01a2.094,2.094,0,0,0-1.482.036c-.146.042-.166.094-.147.152a.33.33,0,0,1-.047-.03l-.053.021-.053-.02-.013.007a.22.22,0,0,0-.143-.1c-.445-.136-1.014-.037-1.42-.192a5.138,5.138,0,0,0-2.659-.265c-.294.043-.576.013-.676-.16a.394.394,0,0,0,.073-.009.839.839,0,0,0,.434-.225l.173-.013c.677-.033,1.516.059,1.873-.342a2.215,2.215,0,0,1,1.472-.533.22.22,0,0,1-.076.073c-.295.172-.441.349-.132.55a.654.654,0,0,0,.567.019c.291-.13.623-.282.3-.521-.1-.076-.122-.14-.1-.2.147-.017.3-.03.449-.033.584-.1,1.473-.064.988-.67-.024-.01-.052-.017-.079-.026.222-.1.647-.08.65-.3a.456.456,0,0,0,.073-.044,3.079,3.079,0,0,1,.959.133c-.681.56-.08.733.782.872a6.286,6.286,0,0,0,2.407.115c.686.195.7-.082.835-.345.2-.388.468-.79,1.457-.631.255.059.588-.033.787.132C572.547,129.17,572.538,129.316,572.531,129.46Zm-3.409-23.714c-.037-.047.039-.024.062,0Zm3.346-1.183.009-.006.022.013,0,0Zm1.519,29.492a4.036,4.036,0,0,0,.262-.513.62.62,0,0,0,.116.515A.751.751,0,0,0,573.987,134.056Zm1.585.344-.021.014c-.115.145-.051.255.115.345a2.233,2.233,0,0,1-.667-.246c.146-.067.18-.14.083-.223A.464.464,0,0,1,575.572,134.4Zm3.8-5.333c-.162.059-.324.119-.548.2l.928.487.05.01c-.18.262-.757-.129-.936.13l-.006.014c-.024-.02-.052-.037-.074-.059-.245,0-.405.083-.415.2-.047.541-.673.724-1.435.83a.545.545,0,0,0-.387-.3c.085-.405.714-.331,1.148-.387.531-.069.863-.346.492-.457-.746-.22-.344-.6-.65-.859-.521-.567-1.648-.475-2.465-.72.253-.551.985-.555,1.729-.432.351.057.634.236,1,.036a3.7,3.7,0,0,1,1.709.471C580.633,128.709,580.039,128.826,579.367,129.067Zm-1.79-9.347.137-.026a.153.153,0,0,0,.011.046C577.677,119.732,577.628,119.728,577.578,119.719Zm2.17.273.117-.031a.3.3,0,0,0,.029.031Zm4.006-15.886c-.382.019-.889,0-.933.309l-.067,0a1.045,1.045,0,0,0-.484-.092l-.029,0a1.99,1.99,0,0,0-2.06-.077,2.71,2.71,0,0,1-2.541.042,1.138,1.138,0,0,0-.586-.092c-2.042.1-4.142-.285-6.132.235h-.013a3.31,3.31,0,0,0-2.86-.742,2.4,2.4,0,0,1-.261-.046c-.352-.01-.65.029-.754.253a2.122,2.122,0,0,0-.2.116.307.307,0,0,1,.136-.173.911.911,0,0,0-.951.318,1.42,1.42,0,0,1-1.643.213l-.135-.059.006-.007c.564,0,.637-.418,1.2-.438.263-.009.293-.147.149-.262a.494.494,0,0,0-.524-.062c-.195.083-.265.394-.613.2-.65-.369-.862-.052-1.164.18h0a.141.141,0,0,1-.082.1.523.523,0,0,1,.044.106c-.3.113-.571.243-.855.365l-.17-.011c-.169-.266-.674-.219-1.075-.268-.349-.043-.62-.142-.657-.356s.265-.262.531-.328c.325-.082.84-.1.783-.362a.224.224,0,0,0-.135-.167,2.487,2.487,0,0,0,.8-.109,3.423,3.423,0,0,1,1.552-.011c.117.019.236.034.356.044a48.844,48.844,0,0,0,6.179.375,1.866,1.866,0,0,0,1.207-.283.222.222,0,0,0-.026-.026c.019.009.036.016.053.026l.009.006h0c.046.03.092.059.139.087.126.027.253.049.381.066.418.215.737.554,1.352.339a8.858,8.858,0,0,1,1.32-.3c.239,0,.477,0,.714.017a9.564,9.564,0,0,1,1.831.069,5.833,5.833,0,0,0,3.15-.235h.233c.14.374.311.4,1.234.447a8.621,8.621,0,0,1,3.05.354A4.512,4.512,0,0,1,583.754,104.107Zm8.644,15.1c.04.009.082.017.122.027l-.126.019A.1.1,0,0,0,592.4,119.205Zm-2.58-.222.064.023-.08,0Zm13.854-4.156-.019-.029.044,0Z" transform="translate(0 0.543)" fill="rgba(233,120,74,0.15)"/>
    <path id="Path_251" data-name="Path 251" d="M420.253,45.1a4.453,4.453,0,0,0,.843.116A33.16,33.16,0,0,0,427.1,44.8c.338-.077.849-.066.679-.367a.923.923,0,0,0-.992-.3,5.528,5.528,0,0,1-2.838-.014,2.819,2.819,0,0,0-1.437.08,3.706,3.706,0,0,1-1.41.169c-.208,0-.417,0-.626,0-.422,0-.756.082-.809.338C419.621,44.932,419.9,45.041,420.253,45.1Z" transform="translate(159.169 0)" fill="rgba(233,120,74,0.15)"/>
    <path id="Path_252" data-name="Path 252" d="M364.247,129.927c-.608.736-1.351.248-2.09.093a1.24,1.24,0,0,0-.916.13c-.554-.02-1.025.362-1.917.112a3.635,3.635,0,0,0,1.49-.451c.324-.206.442-.394-.149-.534a2.5,2.5,0,0,0-1.941.077,3.193,3.193,0,0,1-.732.358c-1.035.3-1.183.631-.533,1.311.116.2-.073.291-.389.349-.242.044-.484.142-.435.3s.365.157.6.2a.686.686,0,0,0,.7-.172c.11-.116-.229-.276.223-.374.61.679,1.479.5,2.338.166a7.091,7.091,0,0,1,3.834-.57c1.107.229,1.612-.252,2.483-.263-.972-.08-2.014-.047-2.345-.723A.569.569,0,0,0,364.247,129.927Z" transform="translate(131.959 36.717)" fill="rgba(233,120,74,0.15)"/>
    <path id="Path_253" data-name="Path 253" d="M413.4,47.965c.481-.086.911.063,1.41-.007.882-.123,1.817.448,1.768.976-.017.183-.1.422.295.49a.686.686,0,0,0,.766-.344,2.013,2.013,0,0,1,1.781-.9c.535-.029,1.234-.425.2-.779a.5.5,0,0,0-.11-.027c-.448-.132-.555-.543-1.074-.528a6.724,6.724,0,0,0-2.886.567h0c-.709,0-1.417-.007-2.126-.006-.312,0-.607.037-.584.265C412.851,47.858,413.118,48.014,413.4,47.965Zm5.856-.534v0h0Zm-3.16-.01-.02.019-.009-.02Z" transform="translate(156.219 1.201)" fill="rgba(233,120,74,0.15)"/>
    <path id="Path_254" data-name="Path 254" d="M276.723,132.5c-.623-.014-1.247-.006-1.871-.006-1.213,0-1.724.292-1.578.994.137.666,1.034.355,1.652.335a1.844,1.844,0,0,0,1.016-.153c-.056-.263-.673-.2-.746-.44a2.818,2.818,0,0,1,1.518-.157c.405.011.617-.093.618-.332S276.991,132.509,276.723,132.5Z" transform="translate(95.968 38.175)" fill="rgba(233,120,74,0.15)"/>
    <path id="Path_255" data-name="Path 255" d="M338.2,131.88c.325.195.146.342-.09.478s-.7.309-.813.1c-.318-.563-1.065-.126-1.545-.272-.23-.07-.494.047-.517.209s.193.275.47.245c1.049-.117.674.157.418.438-.228.249.05.484.428.441.631-.072,1.455.029,1.815-.43l.272-.116h.5c.288-.336-.129-.67-.023-1.006.583-.418.371-.7-.477-.87C337.488,131.179,337.537,131.484,338.2,131.88Z" transform="translate(122.723 37.572)" fill="rgba(233,120,74,0.15)"/>
    <path id="Path_256" data-name="Path 256" d="M435.2,86.135a2.97,2.97,0,0,0-1.923.683c1.936-.113,3.629-.209,5.32-.314.269-.017.461-.136.458-.278,0-.166-.271-.2-.531-.231A16.273,16.273,0,0,0,435.2,86.135Z" transform="translate(165.048 18.085)" fill="rgba(233,120,74,0.15)"/>
    <path id="Path_257" data-name="Path 257" d="M426.078,79.925a4.191,4.191,0,0,1-2.162-.02c-.3-.07-.7-.157-.845.093-.157.278.142.415.634.478a8,8,0,0,0,2.3.112c.243.007.451.01.659.02.46.023,1.109.06,1.2-.2.126-.372-.627-.349-1.061-.438A1.821,1.821,0,0,0,426.078,79.925Z" transform="translate(160.622 15.442)" fill="rgba(233,120,74,0.15)"/>
    <path id="Path_258" data-name="Path 258" d="M186.847,51.393a8.477,8.477,0,0,0,1.163.232,1.6,1.6,0,0,0,1.436-.409c.295-.412-.51-.382-.849-.535a2.739,2.739,0,0,0-1.105-.1c-.059,0-.266.024-.471.019-.6-.02-.939.152-1.022.468C185.894,51.473,186.534,51.315,186.847,51.393Z" transform="translate(58.299 2.813)" fill="rgba(233,120,74,0.15)"/>
    <path id="Path_259" data-name="Path 259" d="M418.533,84.346c-.2.115.109.346.392.464a.388.388,0,0,0,.487-.093,3.27,3.27,0,0,1,2.7-1.241c.3-.019.432-.2.384-.388a.1.1,0,0,1-.021-.1c-.978-1.138-2.538-1.31-4.271-.47a16.588,16.588,0,0,1-2.043-.258c-.4-.042-.8,0-.829.275-.023.238.335.3.7.292a9.92,9.92,0,0,1,2.48.268l-.019.014C418.723,83.517,419.3,83.9,418.533,84.346Z" transform="translate(157.297 16.375)" fill="rgba(233,120,74,0.15)"/>
    <path id="Path_260" data-name="Path 260" d="M185.118,52.2c.577.036.846-.116.813-.452-.042-.444-.919-.868-1.828-.866-.379.017-.918.04-.717.324A2,2,0,0,0,185.118,52.2Z" transform="translate(57.158 2.946)" fill="rgba(233,120,74,0.15)"/>
    <path id="Path_261" data-name="Path 261" d="M307,132.4a1.344,1.344,0,0,1-1.005-.326.931.931,0,0,0-.455-.056c-.179.023-.186.129-.173.229.069.541.989,1.042,1.964,1.054.2-.137.843.306.763-.15C308.029,132.8,308.152,132.267,307,132.4Z" transform="translate(109.828 37.965)" fill="rgba(233,120,74,0.15)"/>
    <path id="Path_262" data-name="Path 262" d="M408.8,124.041c-.772-.049-1.626-.51-2.335.076-.7.268-1.414-.359-2.213.064.981-.079,1.088.474,1.705.627,1.085.273,1.817-.441,2.875-.364C408.995,124.456,409.044,124.057,408.8,124.041Z" transform="translate(152.518 34.431)" fill="rgba(233,120,74,0.15)"/>
    <path id="Path_263" data-name="Path 263" d="M375.648,47.787c.895-.5,1.837-.026,2.724-.113.546.107,1.264.275,1.518-.1.384-.576,1.947-.8,1.472-1.621-.029-.049.249-.156.387-.236a10.045,10.045,0,0,0-1.711-.258c-.608-.09-1.3-.256-1.548.229-.177.351-.522.823.676.919.168.013.68.092.533.362-1.278-.049-1.308-.044-1.742-.511a.539.539,0,0,0-.54-.21c-.295.039-.55.149-.584.325-.027.14.109.272.364.336.3.076.679-.047.935.126h0a9.611,9.611,0,0,1-2.408,0,1.454,1.454,0,0,0-1.137.092c-.186.082-.2.209-.064.315A1.878,1.878,0,0,0,375.648,47.787Z" transform="translate(139.644 0.558)" fill="rgba(233,120,74,0.15)"/>
    <path id="Path_264" data-name="Path 264" d="M181.041,51.906c.256-.01,1.045.029,1.044-.259,0-.338-.713-.553-1.339-.6-.431-.033-.859.109-.782.417C180.028,51.715,180.142,52,181.041,51.906Z" transform="translate(55.696 3.014)" fill="rgba(233,120,74,0.15)"/>
    <path id="Path_265" data-name="Path 265" d="M280.224,132.788a1.225,1.225,0,0,0-1.267-.129c-.269.079-.315.233-.195.361.238.253.707.219,1.11.209a19.727,19.727,0,0,1,3.14-.193A3.212,3.212,0,0,0,280.224,132.788Z" transform="translate(98.32 38.198)" fill="rgba(233,120,74,0.15)"/>
    <path id="Path_266" data-name="Path 266" d="M396.987,110.55c.193-.276-.133-.359-.571-.371-.057,0-.106-.11-.158-.168-.265-.533-1.011-.241-1.552-.278s-.417.2-.408.375c.014.235-.5.764.505.515a1.814,1.814,0,0,1,1.225.05C396.31,110.759,396.807,110.806,396.987,110.55Z" transform="translate(148.169 28.329)" fill="rgba(233,120,74,0.15)"/>
    <path id="Path_267" data-name="Path 267" d="M439.088,114.575a21.532,21.532,0,0,0,4.792.029A22.335,22.335,0,0,0,439.088,114.575Z" transform="translate(167.554 30.389)" fill="rgba(233,120,74,0.15)"/>
    <path id="Path_268" data-name="Path 268" d="M422.161,106.353a2.927,2.927,0,0,0-.511-.087,2.718,2.718,0,0,0-.547.106c-.3.127-.976.142-.757.444s.756.146,1.154.053c.256-.06.545-.253.714-.22.381.077.879.3.966-.043C423.285,106.194,422.489,106.478,422.161,106.353Z" transform="translate(159.445 26.852)" fill="rgba(233,120,74,0.15)"/>
    <path id="Path_269" data-name="Path 269" d="M373.127,46.591a8.476,8.476,0,0,1,1.719-.137c.263-.01.527-.052.464-.243-.053-.163-.275-.127-.485-.089a8.054,8.054,0,0,1-1.768.04.746.746,0,0,0-.724.126c-.115.082-.173.19-.04.253A1.339,1.339,0,0,0,373.127,46.591Z" transform="translate(138.688 0.876)" fill="rgba(233,120,74,0.15)"/>
    <path id="Path_270" data-name="Path 270" d="M367.345,129.858c-.233-.057-.769.017-.693.322.1.2.046.477.6.407.455-.056,1.16-.037,1.21-.355C368.522,129.868,367.739,129.957,367.345,129.858Z" transform="translate(136.283 37.029)" fill="rgba(233,120,74,0.15)"/>
    <path id="Path_271" data-name="Path 271" d="M194.721,51.27c.2-.016.369-.033.408-.147a3.162,3.162,0,0,0-1.2-.878c-.417.039-.51.215-.5.414C193.444,51.153,194.295,51.077,194.721,51.27Z" transform="translate(61.511 2.67)" fill="rgba(233,120,74,0.15)"/>
    <path id="Path_272" data-name="Path 272" d="M223.886,50.089c.379.033.9-.1.873-.372-.039-.367-.631-.165-1-.226-.341.116-1.061-.156-1.092.209C222.63,50.09,223.424,50.05,223.886,50.089Z" transform="translate(74.131 2.344)" fill="rgba(233,120,74,0.15)"/>
    <path id="Path_273" data-name="Path 273" d="M210.35,50.792c.425.02.616-.12.543-.342a.5.5,0,0,0-.67-.269,1.246,1.246,0,0,1-.875-.047c-.357-.03-.712-.067-1.069-.089-.289-.017-.679-.02-.756.14-.1.2.2.328.563.374C208.675,51.144,209.584,50.754,210.35,50.792Z" transform="translate(67.587 2.58)" fill="rgba(233,120,74,0.15)"/>
    <path id="Path_274" data-name="Path 274" d="M352.4,131.022c-.286-.013-.65.093-.525.281a1.071,1.071,0,0,0,.85.6c.316-.016.583-.076.444-.251C352.987,131.416,353.064,131.051,352.4,131.022Z" transform="translate(129.898 37.538)" fill="rgba(233,120,74,0.15)"/>
    <path id="Path_275" data-name="Path 275" d="M334.669,131.959c-.556.132-1.363.147-1.246.753.49-.083.883-.145,1.271-.216.272-.05.394-.169.368-.326A.312.312,0,0,0,334.669,131.959Z" transform="translate(121.937 37.939)" fill="rgba(233,120,74,0.15)"/>
    <path id="Path_276" data-name="Path 276" d="M425.083,84.345c-.109.432-.425.756-.354,1.132C425.726,85.357,425.823,85.124,425.083,84.345Z" transform="translate(161.351 17.39)" fill="rgba(233,120,74,0.15)"/>
    <path id="Path_277" data-name="Path 277" d="M424.728,85.136h-.006l0,0h0Z" transform="translate(161.353 17.731)" fill="rgba(233,120,74,0.15)"/>
    <path id="Path_278" data-name="Path 278" d="M379.5,129.85c-.4,0-.813.082-.856.318s.421.23.726.3c.352-.052.757-.083.752-.364C380.119,129.882,379.8,129.847,379.5,129.85Z" transform="translate(141.462 37.033)" fill="rgba(233,120,74,0.15)"/>
    <path id="Path_279" data-name="Path 279" d="M396.922,83.365c.107.225.4.289.762.278.289-.009.644-.024.623-.249-.024-.268-.4-.338-.8-.326C397.2,83.076,396.945,83.162,396.922,83.365Z" transform="translate(149.352 16.838)" fill="rgba(233,120,74,0.15)"/>
    <path id="Path_280" data-name="Path 280" d="M394.71,111.248c.006.216.432.208.673.239.338.044.717-.046.7-.276-.01-.188-.377-.219-.676-.252C395.077,110.975,394.7,111,394.71,111.248Z" transform="translate(148.398 28.878)" fill="rgba(233,120,74,0.15)"/>
    <path id="Path_281" data-name="Path 281" d="M394.787,49.863c-.006.175.272.248.508.241.371-.011.8-.12.853-.318s-.368-.188-.659-.2C395.174,49.608,394.8,49.6,394.787,49.863Z" transform="translate(148.431 2.385)" fill="rgba(233,120,74,0.15)"/>
    <path id="Path_282" data-name="Path 282" d="M428.434,120.388a4.471,4.471,0,0,0-1.427-.112C427.05,120.813,427.054,120.811,428.434,120.388Z" transform="translate(162.339 32.899)" fill="rgba(233,120,74,0.15)"/>
    <path id="Path_283" data-name="Path 283" d="M427.009,120.276v0H427l0,0Z" transform="translate(162.336 32.898)" fill="rgba(233,120,74,0.15)"/>
    <path id="Path_284" data-name="Path 284" d="M386.96,110.509c-.474.01-.535.265-.58.468-.042.182.135.312.482.342.435.023,1.019.175,1.177-.166.126-.271-.372-.231-.7-.219C387.02,110.844,387.518,110.5,386.96,110.509Z" transform="translate(144.799 28.684)" fill="rgba(233,120,74,0.15)"/>
    <path id="Path_285" data-name="Path 285" d="M435.762,100.737a1.578,1.578,0,0,0,1.3.253c.155-.039.226-.153.1-.229A1.716,1.716,0,0,0,435.762,100.737Z" transform="translate(166.118 24.407)" fill="rgba(233,120,74,0.15)"/>
    <path id="Path_286" data-name="Path 286" d="M414.607,111.311a5.849,5.849,0,0,0,2.067.024A2.431,2.431,0,0,0,414.607,111.311Z" transform="translate(156.986 28.934)" fill="rgba(233,120,74,0.15)"/>
    <path id="Path_287" data-name="Path 287" d="M387.6,110.405c-.086.139.112.3.358.314.407.016.889,0,.611-.368C388.224,110.279,387.829,110.026,387.6,110.405Z" transform="translate(145.318 28.551)" fill="rgba(233,120,74,0.15)"/>
    <path id="Path_288" data-name="Path 288" d="M388.267,110.307l.007,0h0v0h-.009Z" transform="translate(145.615 28.595)" fill="rgba(233,120,74,0.15)"/>
    <path id="Path_289" data-name="Path 289" d="M396.54,82.433l.029-.206c-.5-.026-1-.052-1.715-.09A1.979,1.979,0,0,0,396.54,82.433Z" transform="translate(148.46 16.437)" fill="rgba(233,120,74,0.15)"/>
    <path id="Path_290" data-name="Path 290" d="M433.356,95.6c.638.074,1.062.19,1.309-.109.123-.149.017-.329-.222-.348C433.959,95.1,433.89,95.411,433.356,95.6Z" transform="translate(165.08 22.048)" fill="rgba(233,120,74,0.15)"/>
    <path id="Path_291" data-name="Path 291" d="M330.787,46a1.074,1.074,0,0,0,.246,0,.78.78,0,0,0,.756-.062c.112-.1.074-.223-.1-.316-.366-.193-.578,0-.827.1-.487.026-1.362-.172-1.32.208C329.584,46.335,330.359,45.872,330.787,46Z" transform="translate(120.266 0.641)" fill="rgba(233,120,74,0.15)"/>
    <path id="Path_292" data-name="Path 292" d="M314.731,45.869c.034-.248-.335-.2-.669-.228-.143.044-.5.006-.4.222a.562.562,0,0,0,.538.239C314.469,46.1,314.708,46.019,314.731,45.869Z" transform="translate(113.405 0.683)" fill="rgba(233,120,74,0.15)"/>
    <path id="Path_293" data-name="Path 293" d="M287.785,131.439a.929.929,0,0,0-1.005.374,1.557,1.557,0,0,0,1.2-.094C288.137,131.6,287.988,131.477,287.785,131.439Z" transform="translate(101.808 37.708)" fill="rgba(233,120,74,0.15)"/>
    <path id="Path_294" data-name="Path 294" d="M334.289,131.467c-.016-.166-.086-.321-.447-.346-.236.03-.382.115-.326.242.073.168.1.4.53.385A.228.228,0,0,0,334.289,131.467Z" transform="translate(121.977 37.582)" fill="rgba(233,120,74,0.15)"/>
    <path id="Path_295" data-name="Path 295" d="M393.386,50.049c.08.043.192.152.3.15a.584.584,0,0,0,.571-.3c.054-.127-.11-.249-.322-.225A.57.57,0,0,0,393.386,50.049Z" transform="translate(147.826 2.421)" fill="rgba(233,120,74,0.15)"/>
    <path id="Path_296" data-name="Path 296" d="M396.567,109.325c-.051-.12-.235-.185-.462-.166-.263.021-.45.1-.448.276a.574.574,0,0,0,.55.192C396.462,109.6,396.635,109.484,396.567,109.325Z" transform="translate(148.806 28.1)" fill="rgba(233,120,74,0.15)"/>
    <path id="Path_297" data-name="Path 297" d="M441.185,52.5c-.064-.149-.3-.123-.5-.116s-.315.076-.278.179c.046.126.218.186.452.182C441.056,52.7,441.246,52.642,441.185,52.5Z" transform="translate(168.119 3.592)" fill="rgba(233,120,74,0.15)"/>
    <path id="Path_298" data-name="Path 298" d="M338.683,131.875a.4.4,0,0,0-.4.084c-.229.222.044.328.341.422a1.668,1.668,0,0,1,.241-.013C338.853,132.2,339.027,132,338.683,131.875Z" transform="translate(124.002 37.897)" fill="rgba(233,120,74,0.15)"/>
    <path id="Path_299" data-name="Path 299" d="M376.4,130.564c-.285-.014-.447.079-.45.168.02.215.153.3.391.279s.492-.082.485-.251C376.821,130.625,376.6,130.573,376.4,130.564Z" transform="translate(140.3 37.341)" fill="rgba(233,120,74,0.15)"/>
    <path id="Path_300" data-name="Path 300" d="M359.868,128.689c.01-.13-.251-.169-.455-.192-.306-.034-.484.056-.49.22,0,.129.145.21.444.2C359.57,128.889,359.855,128.849,359.868,128.689Z" transform="translate(132.95 36.446)" fill="rgba(233,120,74,0.15)"/>
    <path id="Path_301" data-name="Path 301" d="M355.632,47.845l.01.007.013,0Z" transform="translate(131.529 1.634)" fill="rgba(233,120,74,0.15)"/>
    <path id="Path_302" data-name="Path 302" d="M409.121,47.435h0Z" transform="translate(154.618 1.457)" fill="rgba(233,120,74,0.15)"/>
    <path id="Path_303" data-name="Path 303" d="M353.425,129.569h0Z" transform="translate(130.576 36.911)" fill="rgba(233,120,74,0.15)"/>
    <path id="Path_304" data-name="Path 304" d="M295.552,49.115h0Z" transform="translate(105.594 2.182)" fill="rgba(233,120,74,0.15)"/>
    <path id="Path_305" data-name="Path 305" d="M361.533,50.946c-.168.082-.05.238.143.3a1.708,1.708,0,0,0,1.739-.276A2.739,2.739,0,0,0,361.533,50.946Z" transform="translate(134.042 2.902)" fill="rgba(233,120,74,0.15)"/>
    <path id="Path_306" data-name="Path 306" d="M347.335,47.66c.064.132.092.289.389.314s.478-.057.47-.23c-.009-.153-.165-.259-.442-.278C347.507,47.448,347.388,47.537,347.335,47.66Z" transform="translate(127.948 1.469)" fill="rgba(233,120,74,0.15)"/>
    <path id="Path_307" data-name="Path 307" d="M262.923,49.882c-.09-.239-.5-.189-.815-.179-.23.006-.515.02-.494.23a.9.9,0,0,0,.818.193C262.678,50.1,262.983,50.04,262.923,49.882Z" transform="translate(90.944 2.432)" fill="rgba(233,120,74,0.15)"/>
    <path id="Path_308" data-name="Path 308" d="M409.925,104.821c.019.218.249.367.624.358.308-.009.534-.159.47-.339s-.266-.293-.629-.275C410.1,104.57,409.91,104.646,409.925,104.821Z" transform="translate(154.965 26.117)" fill="rgba(233,120,74,0.15)"/>
    <path id="Path_309" data-name="Path 309" d="M376.744,50.3a1.494,1.494,0,0,0-1.217.319C376.385,50.718,376.385,50.718,376.744,50.3Z" transform="translate(140.117 2.694)" fill="rgba(233,120,74,0.15)"/>
    <path id="Path_310" data-name="Path 310" d="M83.794,73.02a8.442,8.442,0,0,0,1.916.378c2.548-.1,4.981.452,7.486.547a4.312,4.312,0,0,0,1.651.252c.374,0,1.018.079,1.014-.2-.006-.322-.618-.175-.985-.183a9.588,9.588,0,0,0-1.059-.218c-3.052-.285-6.1-.6-9.174-.765A1.146,1.146,0,0,0,83.794,73.02Z" transform="translate(14.186 12.417)" fill="rgba(233,120,74,0.15)"/>
    <path id="Path_311" data-name="Path 311" d="M57.389,86.252a3.963,3.963,0,0,0-1.406-.422c-.636-.039-.667.429-.846.727s.01.481.475.523c.3.026.606.044.825.062.555-.04,1.134.094,1.407-.275C58.049,86.59,57.647,86.375,57.389,86.252Z" transform="translate(1.787 18.03)" fill="rgba(233,120,74,0.15)"/>
    <path id="Path_312" data-name="Path 312" d="M116.31,125.41a1.954,1.954,0,0,1-1.984-.328,1.889,1.889,0,0,0-.554-.106c-.5.011-1.008.243-1.105.61s.517.338.888.375a7.562,7.562,0,0,0,2.744-.07c.271-.072.326-.157.308-.315A.211.211,0,0,0,116.31,125.41Z" transform="translate(26.645 34.929)" fill="rgba(233,120,74,0.15)"/>
    <path id="Path_313" data-name="Path 313" d="M66.133,87.581c-3-.344-5.939-.647-9.128-.855C57.749,87.156,65.2,87.787,66.133,87.581Z" transform="translate(2.622 18.418)" fill="rgba(233,120,74,0.15)"/>
    <path id="Path_314" data-name="Path 314" d="M57.525,62.278a17.49,17.49,0,0,0,3.373.09,10.23,10.23,0,0,0-3.337-.474c-.188-.007-.419.029-.432.175S57.337,62.252,57.525,62.278Z" transform="translate(2.675 7.698)" fill="rgba(233,120,74,0.15)"/>
    <path id="Path_315" data-name="Path 315" d="M76.894,95.409c.01-.3-.792-.311-1.329-.334-.356.064-1.025-.07-1.055.262-.036.388.669.176,1.011.293a.313.313,0,0,0,.178,0C76.1,95.492,76.88,95.858,76.894,95.409Z" transform="translate(10.178 22.022)" fill="rgba(233,120,74,0.15)"/>
    <path id="Path_316" data-name="Path 316" d="M68.195,70.6c0-.129-.137-.182-.3-.2a13.159,13.159,0,0,0-3.526.378q1.77,0,3.539,0C68.1,70.782,68.195,70.72,68.195,70.6Z" transform="translate(5.8 11.361)" fill="rgba(233,120,74,0.15)"/>
    <path id="Path_317" data-name="Path 317" d="M96.131,124.119c.252.694-.5.344-.964.409.092.076.132.107.166.14a1.04,1.04,0,0,0,1.061.308c.488-.14.149-.563.488-.789.082-.054-.133-.22-.339-.229C96.362,123.951,96.078,123.977,96.131,124.119Z" transform="translate(19.095 34.489)" fill="rgba(233,120,74,0.15)"/>
    <path id="Path_318" data-name="Path 318" d="M87.975,70.042c-.341.56.338.391.667.435.223.03.588.067.541-.189a.647.647,0,0,0-.763-.594C88.1,69.7,87.649,69.66,87.975,70.042Z" transform="translate(15.942 11.066)" fill="rgba(233,120,74,0.15)"/>
    <path id="Path_319" data-name="Path 319" d="M69.19,69.285a5.025,5.025,0,0,1,2.271-.222c.172.037.372-.074.377-.212.006-.176-.229-.16-.405-.162-.4,0-.806,0-1.208,0a2.325,2.325,0,0,0-1.465-.084c-.215.034-.553-.036-.554.208,0,.213.334.2.538.266C68.775,69.271,68.945,69.341,69.19,69.285Z" transform="translate(7.457 10.564)" fill="rgba(233,120,74,0.15)"/>
    <path id="Path_320" data-name="Path 320" d="M60.525,85.458a20.794,20.794,0,0,0,3.131.236C61.194,85.091,61.194,85.091,60.525,85.458Z" transform="translate(4.142 17.762)" fill="rgba(233,120,74,0.15)"/>
    <path id="Path_321" data-name="Path 321" d="M114.981,126.511c-.308.193-.405-.037-.591-.1-.256-.092-.474-.289-.816-.178-.052.017-.1.126-.07.16a1.392,1.392,0,0,0,.7.382,2.234,2.234,0,0,0,.467.039c.168,0,.261.007.351,0,.242-.023.58-.063.528-.251C115.488,126.324,115.165,126.4,114.981,126.511Z" transform="translate(27.007 35.455)" fill="rgba(233,120,74,0.15)"/>
    <path id="Path_322" data-name="Path 322" d="M93.19,84.629c.112-.209-.246-.208-.418-.223a4.507,4.507,0,0,0-1.3.228c.016.251.275.3.45.283C92.361,84.863,92.964,85.055,93.19,84.629Z" transform="translate(17.5 17.413)" fill="rgba(233,120,74,0.15)"/>
    <path id="Path_323" data-name="Path 323" d="M81.1,84.433c.033-.256-.322-.378-.606-.4-.308-.024-.628.153-.663.351-.046.268.4.178.6.261C80.724,84.649,81.071,84.694,81.1,84.433Z" transform="translate(12.476 17.255)" fill="rgba(233,120,74,0.15)"/>
    <path id="Path_324" data-name="Path 324" d="M76.108,84.93a7.714,7.714,0,0,0,.89-.116c.256-.062.535-.172.209-.4-.229-.47-.9-.407-1.4-.548C76.106,84.191,75.356,84.662,76.108,84.93Z" transform="translate(10.718 17.182)" fill="rgba(233,120,74,0.15)"/>
    <path id="Path_325" data-name="Path 325" d="M74.76,99.787c-.067.157.228.232.45.206a1.041,1.041,0,0,0,.85-.474c.067-.137-.223-.149-.435-.162C75.257,99.4,74.877,99.516,74.76,99.787Z" transform="translate(10.282 23.87)" fill="rgba(233,120,74,0.15)"/>
    <path id="Path_326" data-name="Path 326" d="M92.731,58.142a3.68,3.68,0,0,0-2.276-.011A5.313,5.313,0,0,0,92.731,58.142Z" transform="translate(17.061 5.999)" fill="rgba(233,120,74,0.15)"/>
    <path id="Path_327" data-name="Path 327" d="M88.341,69.557c.577.285,1.144.019,1.913-.023C88.994,69.213,88.994,69.213,88.341,69.557Z" transform="translate(16.149 10.894)" fill="rgba(233,120,74,0.15)"/>
    <path id="Path_328" data-name="Path 328" d="M110.269,125.78c-.208.007-.438.033-.454.241.127.261.468.22.759.241.193.013.389-.014.369-.188C110.909,125.784,110.581,125.768,110.269,125.78Z" transform="translate(25.418 35.275)" fill="rgba(233,120,74,0.15)"/>
    <path id="Path_329" data-name="Path 329" d="M78.346,68.4c.246-.053.653-.082.419-.471-.334.385-.819.268-1.359.167A.76.76,0,0,0,78.346,68.4Z" transform="translate(11.429 10.302)" fill="rgba(233,120,74,0.15)"/>
    <path id="Path_330" data-name="Path 330" d="M82.679,122.333c-.19,0-.369.023-.354.212a.5.5,0,0,0,.51.358c.236,0,.377-.122.351-.293C83.154,122.406,82.948,122.334,82.679,122.333Z" transform="translate(13.552 33.788)" fill="rgba(233,120,74,0.15)"/>
    <path id="Path_331" data-name="Path 331" d="M107.337,125.629c-.152.059-.16.182-.011.261.336.182.623.057,1-.135A.911.911,0,0,0,107.337,125.629Z" transform="translate(24.297 35.172)" fill="rgba(233,120,74,0.15)"/>
    <path id="Path_332" data-name="Path 332" d="M101.834,124.769c-.19-.009-.355.037-.389.193.062.188.255.271.517.279.172.006.3-.064.271-.185A.378.378,0,0,0,101.834,124.769Z" transform="translate(21.805 34.839)" fill="rgba(233,120,74,0.15)"/>
    <path id="Path_333" data-name="Path 333" d="M99.014,124.1c-.219,0-.309.11-.326.246-.02.157.116.22.391.232.15-.04.351-.092.322-.278C99.379,124.147,99.21,124.094,99.014,124.1Z" transform="translate(20.614 34.55)" fill="rgba(233,120,74,0.15)"/>
    <path id="Path_334" data-name="Path 334" d="M83.936,95.567a.959.959,0,0,0-.886-.278c-.13.021-.162.132-.054.195A.928.928,0,0,0,83.936,95.567Z" transform="translate(13.813 22.106)" fill="rgba(233,120,74,0.15)"/>
    <path id="Path_335" data-name="Path 335" d="M57.673,93.956a1.272,1.272,0,0,0-1-.059c-.036.017-.016.15.024.163A1.024,1.024,0,0,0,57.673,93.956Z" transform="translate(2.471 21.477)" fill="rgba(233,120,74,0.15)"/>
    <path id="Path_336" data-name="Path 336" d="M54.495,90.8c-.009-.162-.226-.173-.4-.18-.192-.007-.349.043-.394.19.052.155.229.172.414.175S54.5,90.956,54.495,90.8Z" transform="translate(1.195 20.096)" fill="rgba(233,120,74,0.15)"/>
    <path id="Path_337" data-name="Path 337" d="M67.8,84.984a.988.988,0,0,0,.885.053c.132-.064.077-.155-.039-.19A.78.78,0,0,0,67.8,84.984Z" transform="translate(7.283 17.579)" fill="rgba(233,120,74,0.15)"/>
  </g>
</svg>
