<svg xmlns="http://www.w3.org/2000/svg" width="30" height="30" viewBox="0 0 30 30">
  <g id="call_icon" data-name="call icon" transform="translate(0 0)">
    <g id="Group_1485" data-name="Group 1485" transform="translate(0 0)">
      <g id="Group_1484" data-name="Group 1484" transform="translate(0 0)">
        <path id="Path_2457" data-name="Path 2457" d="M29.417,23.855l-3.326-2.217-2.957-1.971a1.31,1.31,0,0,0-1.759.286L19.547,22.3a1.3,1.3,0,0,1-1.663.345,21.3,21.3,0,0,1-5.948-4.584,21.453,21.453,0,0,1-4.584-5.948A1.3,1.3,0,0,1,7.7,10.454l2.352-1.829a1.31,1.31,0,0,0,.286-1.759L8.424,4,6.146.583a1.31,1.31,0,0,0-1.763-.4L1.755,1.763A3.21,3.21,0,0,0,.3,3.649c-.718,2.619-.863,8.4,8.4,17.657s15.038,9.115,17.657,8.4a3.209,3.209,0,0,0,1.886-1.458l1.576-2.627A1.31,1.31,0,0,0,29.417,23.855Z" transform="translate(0 0)" fill="#e9784a"/>
        <path id="Path_2458" data-name="Path 2458" d="M283.051,62.93a9.683,9.683,0,0,1,9.672,9.672.569.569,0,1,0,1.138,0,10.822,10.822,0,0,0-10.81-10.81.569.569,0,0,0,0,1.138Z" transform="translate(-267.275 -57.809)" fill="#e9784a"/>
        <path id="Path_2459" data-name="Path 2459" d="M283.05,115.894a6.266,6.266,0,0,1,6.259,6.259.569.569,0,1,0,1.138,0,7.405,7.405,0,0,0-7.4-7.4.569.569,0,0,0,0,1.138Z" transform="translate(-266.456 -108.246)" fill="#e9784a"/>
        <path id="Path_2460" data-name="Path 2460" d="M283.051,168.861a2.848,2.848,0,0,1,2.845,2.845.569.569,0,1,0,1.138,0,3.987,3.987,0,0,0-3.983-3.983.569.569,0,0,0,0,1.138Z" transform="translate(-266.195 -158.053)" fill="#e9784a"/>
      </g>
    </g>
  </g>
</svg>
